<svg xmlns="http://www.w3.org/2000/svg" xmlns:xlink="http://www.w3.org/1999/xlink" width="100" zoomAndPan="magnify" viewBox="0 0 75 74.999997" height="100" preserveAspectRatio="xMidYMid meet" version="1.0"><defs><clipPath id="3fcd4ee10e"><path d="M 4 0 L 72.09375 0 L 72.09375 75 L 4 75 Z M 4 0 " clip-rule="nonzero"/></clipPath><clipPath id="a7996a301d"><path d="M 3.09375 44 L 12 44 L 12 56 L 3.09375 56 Z M 3.09375 44 " clip-rule="nonzero"/></clipPath><clipPath id="d0b151da99"><path d="M 3.09375 43 L 13 43 L 13 57 L 3.09375 57 Z M 3.09375 43 " clip-rule="nonzero"/></clipPath><clipPath id="89ebe8ef9a"><path d="M 3.09375 0 L 64 0 L 64 72 L 3.09375 72 Z M 3.09375 0 " clip-rule="nonzero"/></clipPath><clipPath id="3e27e88a88"><path d="M 3.09375 0 L 71 0 L 71 75 L 3.09375 75 Z M 3.09375 0 " clip-rule="nonzero"/></clipPath></defs><path fill="#f9a5b4" d="M 57.601562 47.078125 L 67.023438 47.078125 L 65.570312 55.730469 L 55.46875 55.730469 L 55.382812 56.246094 L 52.410156 74.371094 L 43.769531 74.371094 L 46.703125 56.445312 L 46.820312 55.730469 L 30.058594 55.730469 L 29.976562 56.246094 L 27 74.371094 L 18.359375 74.371094 L 21.300781 56.445312 L 21.417969 55.730469 L 11.195312 55.730469 L 12.648438 47.078125 L 22.832031 47.078125 L 22.914062 46.5625 L 25.417969 31.316406 L 25.535156 30.601562 L 15.390625 30.601562 L 16.8125 21.953125 L 26.953125 21.953125 L 27.035156 21.4375 L 30.007812 3.316406 L 38.652344 3.316406 L 35.710938 21.242188 L 35.59375 21.953125 L 52.359375 21.953125 L 52.445312 21.4375 L 55.417969 3.316406 L 64.054688 3.316406 L 61.117188 21.234375 L 60.996094 21.945312 L 71.183594 21.945312 L 69.761719 30.601562 L 59.578125 30.601562 L 59.496094 31.117188 L 56.992188 46.363281 L 56.875 47.078125 Z M 47.722656 47.082031 L 48.242188 47.082031 L 48.328125 46.566406 L 50.832031 31.320312 L 50.949219 30.609375 L 34.179688 30.609375 L 34.097656 31.125 L 31.59375 46.371094 L 31.476562 47.082031 Z M 47.722656 47.082031 " fill-opacity="1" fill-rule="nonzero"/><g clip-path="url(#3fcd4ee10e)"><path stroke-linecap="butt" transform="matrix(0.0490712, 0, 0, 0.0490712, 3.093751, 0.0169892)" fill="none" stroke-linejoin="miter" d="M 1110.791189 959.038599 L 1302.795518 959.038599 L 1273.18291 1135.360983 L 1067.327522 1135.360983 L 1065.576239 1145.868682 L 1004.997759 1515.230244 L 828.914186 1515.230244 L 888.696629 1149.928475 L 891.084742 1135.360983 L 549.504902 1135.360983 L 547.833222 1145.868682 L 487.175138 1515.230244 L 311.091566 1515.230244 L 371.033216 1149.928475 L 373.421329 1135.360983 L 165.098224 1135.360983 L 194.710832 959.038599 L 402.2379 959.038599 L 403.909579 948.5309 L 454.935605 637.837327 L 457.323719 623.269835 L 250.592689 623.269835 L 279.568467 447.027055 L 486.219893 447.027055 L 487.891572 436.519355 L 548.470052 67.237397 L 724.633228 67.237397 L 664.691578 432.539166 L 662.303465 447.027055 L 1003.962909 447.027055 L 1005.714193 436.519355 L 1066.292673 67.237397 L 1242.296641 67.237397 L 1182.434595 432.379959 L 1179.966878 446.867847 L 1387.573549 446.867847 L 1358.597771 623.269835 L 1151.070704 623.269835 L 1149.399024 633.777534 L 1098.372998 944.471107 L 1095.984885 959.038599 Z M 909.473217 959.118203 L 920.06052 959.118203 L 921.811803 948.610504 L 972.83783 637.916931 L 975.225943 623.429042 L 633.486895 623.429042 L 631.815215 633.936742 L 580.789189 944.630314 L 578.401075 959.118203 Z M 909.473217 959.118203 " stroke="#000000" stroke-width="25" stroke-opacity="1" stroke-miterlimit="4"/></g><path stroke-linecap="butt" transform="matrix(0.0490712, 0, 0, 0.0490712, 3.093751, 0.0169892)" fill-opacity="1" fill="#f9a5b4" fill-rule="nonzero" stroke-linejoin="round" d="M 226.074724 618.891627 L 99.663913 572.880639 L 128.719295 396.717463 L 255.130105 442.728451 Z M 226.074724 618.891627 " stroke="#000000" stroke-width="25" stroke-opacity="1" stroke-miterlimit="4"/><path stroke-linecap="butt" transform="matrix(0.0490712, 0, 0, 0.0490712, 3.093751, 0.0169892)" fill-opacity="1" fill="#f9a5b4" fill-rule="nonzero" stroke-linejoin="round" d="M 271.289673 422.031467 L 189.61619 392.339255 L 323.111737 392.339255 L 404.785221 422.031467 Z M 271.289673 422.031467 " stroke="#000000" stroke-width="25" stroke-opacity="1" stroke-miterlimit="4"/><g clip-path="url(#a7996a301d)"><path fill="#f9a5b4" d="M 9.988281 55.515625 L 3.78125 53.257812 L 5.234375 44.609375 L 11.441406 46.863281 Z M 9.988281 55.515625 " fill-opacity="1" fill-rule="nonzero"/></g><g clip-path="url(#d0b151da99)"><path stroke-linecap="butt" transform="matrix(0.0490712, 0, 0, 0.0490712, 3.093751, 0.0169892)" fill="none" stroke-linejoin="round" d="M 140.500655 1130.982775 L 14.010241 1084.971787 L 43.622849 908.729007 L 170.113263 954.660391 Z M 140.500655 1130.982775 " stroke="#000000" stroke-width="25" stroke-opacity="1" stroke-miterlimit="4"/></g><path stroke-linecap="butt" transform="matrix(0.0490712, 0, 0, 0.0490712, 3.093751, 0.0169892)" fill-opacity="1" fill="#f9a5b4" fill-rule="nonzero" stroke-linejoin="round" d="M 290.076167 593.577623 L 371.829254 623.269835 L 238.174499 623.269835 L 156.501016 593.577623 Z M 290.076167 593.577623 " stroke="#000000" stroke-width="25" stroke-opacity="1" stroke-miterlimit="4"/><path stroke-linecap="butt" transform="matrix(0.0490712, 0, 0, 0.0490712, 3.093751, 0.0169892)" fill-opacity="1" fill="#f9a5b4" fill-rule="nonzero" stroke-linejoin="round" d="M 465.76172 417.573655 L 339.430513 371.562667 L 397.62088 16.927805 L 524.03169 62.938793 Z M 465.76172 417.573655 " stroke="#000000" stroke-width="25" stroke-opacity="1" stroke-miterlimit="4"/><path stroke-linecap="butt" transform="matrix(0.0490712, 0, 0, 0.0490712, 3.093751, 0.0169892)" fill-opacity="1" fill="#f9a5b4" fill-rule="nonzero" stroke-linejoin="round" d="M 186.432039 933.963407 L 104.678952 904.271195 L 239.129744 904.271195 L 320.803228 933.963407 Z M 186.432039 933.963407 " stroke="#000000" stroke-width="25" stroke-opacity="1" stroke-miterlimit="4"/><path stroke-linecap="butt" transform="matrix(0.0490712, 0, 0, 0.0490712, 3.093751, 0.0169892)" fill-opacity="1" fill="#f9a5b4" fill-rule="nonzero" stroke-linejoin="round" d="M 540.191259 42.162205 L 458.517775 12.469993 L 586.839077 12.469993 L 668.51256 42.162205 Z M 540.191259 42.162205 " stroke="#000000" stroke-width="25" stroke-opacity="1" stroke-miterlimit="4"/><path stroke-linecap="butt" transform="matrix(0.0490712, 0, 0, 0.0490712, 3.093751, 0.0169892)" fill-opacity="1" fill="#f9a5b4" fill-rule="nonzero" stroke-linejoin="round" d="M 206.094174 1105.668771 L 287.767657 1135.360983 L 152.60043 1135.360983 L 70.926947 1105.668771 Z M 206.094174 1105.668771 " stroke="#000000" stroke-width="25" stroke-opacity="1" stroke-miterlimit="4"/><path stroke-linecap="butt" transform="matrix(0.0490712, 0, 0, 0.0490712, 3.093751, 0.0169892)" fill-opacity="1" fill="#f9a5b4" fill-rule="nonzero" stroke-linejoin="round" d="M 381.779727 929.585199 L 255.368916 883.574211 L 302.175942 598.035435 L 428.586752 643.966819 Z M 381.779727 929.585199 " stroke="#000000" stroke-width="25" stroke-opacity="1" stroke-miterlimit="4"/><path stroke-linecap="butt" transform="matrix(0.0490712, 0, 0, 0.0490712, 3.093751, 0.0169892)" fill-opacity="1" fill="#f9a5b4" fill-rule="nonzero" stroke-linejoin="round" d="M 667.238899 417.573655 L 540.828089 371.562667 L 599.018456 16.927805 L 725.429266 62.938793 Z M 667.238899 417.573655 " stroke="#000000" stroke-width="25" stroke-opacity="1" stroke-miterlimit="4"/><path stroke-linecap="butt" transform="matrix(0.0490712, 0, 0, 0.0490712, 3.093751, 0.0169892)" fill-opacity="1" fill="#f9a5b4" fill-rule="nonzero" stroke-linejoin="round" d="M 286.493996 1510.772432 L 160.083186 1464.761445 L 218.273553 1110.126583 L 344.684363 1156.137571 Z M 286.493996 1510.772432 " stroke="#000000" stroke-width="25" stroke-opacity="1" stroke-miterlimit="4"/><path stroke-linecap="butt" transform="matrix(0.0490712, 0, 0, 0.0490712, 3.093751, 0.0169892)" fill-opacity="1" fill="#f9a5b4" fill-rule="nonzero" stroke-linejoin="round" d="M 583.177303 929.664803 L 456.766492 883.733419 L 503.732725 598.115039 L 630.063932 644.126026 Z M 583.177303 929.664803 " stroke="#000000" stroke-width="25" stroke-opacity="1" stroke-miterlimit="4"/><path stroke-linecap="butt" transform="matrix(0.0490712, 0, 0, 0.0490712, 3.093751, 0.0169892)" fill-opacity="1" fill="#f9a5b4" fill-rule="nonzero" stroke-linejoin="round" d="M 345.161986 1485.538033 L 426.915073 1515.230244 L 298.593772 1515.230244 L 216.920288 1485.538033 Z M 345.161986 1485.538033 " stroke="#000000" stroke-width="25" stroke-opacity="1" stroke-miterlimit="4"/><path stroke-linecap="butt" transform="matrix(0.0490712, 0, 0, 0.0490712, 3.093751, 0.0169892)" fill-opacity="1" fill="#f9a5b4" fill-rule="nonzero" stroke-linejoin="round" d="M 679.338675 422.031467 L 597.585588 392.339255 L 840.934358 392.339255 L 922.607841 422.031467 Z M 679.338675 422.031467 " stroke="#000000" stroke-width="25" stroke-opacity="1" stroke-miterlimit="4"/><path stroke-linecap="butt" transform="matrix(0.0490712, 0, 0, 0.0490712, 3.093751, 0.0169892)" fill-opacity="1" fill="#f9a5b4" fill-rule="nonzero" stroke-linejoin="round" d="M 487.891572 1510.772432 L 361.480762 1464.761445 L 419.671128 1110.126583 L 546.081939 1156.137571 Z M 487.891572 1510.772432 " stroke="#000000" stroke-width="25" stroke-opacity="1" stroke-miterlimit="4"/><path stroke-linecap="butt" transform="matrix(0.0490712, 0, 0, 0.0490712, 3.093751, 0.0169892)" fill-opacity="1" fill="#f9a5b4" fill-rule="nonzero" stroke-linejoin="round" d="M 807.898787 593.736831 L 889.572271 623.429042 L 646.303104 623.429042 L 564.629621 593.736831 Z M 807.898787 593.736831 " stroke="#000000" stroke-width="25" stroke-opacity="1" stroke-miterlimit="4"/><path stroke-linecap="butt" transform="matrix(0.0490712, 0, 0, 0.0490712, 3.093751, 0.0169892)" fill-opacity="1" fill="#f9a5b4" fill-rule="nonzero" stroke-linejoin="round" d="M 595.277078 934.122615 L 513.603595 904.430403 L 756.872761 904.430403 L 838.625848 934.122615 Z M 595.277078 934.122615 " stroke="#000000" stroke-width="25" stroke-opacity="1" stroke-miterlimit="4"/><path stroke-linecap="butt" transform="matrix(0.0490712, 0, 0, 0.0490712, 3.093751, 0.0169892)" fill-opacity="1" fill="#f9a5b4" fill-rule="nonzero" stroke-linejoin="round" d="M 983.584341 417.573655 L 857.17353 371.562667 L 915.363897 16.927805 L 1041.774707 62.938793 Z M 983.584341 417.573655 " stroke="#000000" stroke-width="25" stroke-opacity="1" stroke-miterlimit="4"/><path stroke-linecap="butt" transform="matrix(0.0490712, 0, 0, 0.0490712, 3.093751, 0.0169892)" fill-opacity="1" fill="#f9a5b4" fill-rule="nonzero" stroke-linejoin="round" d="M 723.83719 1105.668771 L 805.510674 1135.360983 L 562.321111 1135.360983 L 480.568024 1105.668771 Z M 723.83719 1105.668771 " stroke="#000000" stroke-width="25" stroke-opacity="1" stroke-miterlimit="4"/><path stroke-linecap="butt" transform="matrix(0.0490712, 0, 0, 0.0490712, 3.093751, 0.0169892)" fill-opacity="1" fill="#f9a5b4" fill-rule="nonzero" stroke-linejoin="round" d="M 1058.013879 42.162205 L 976.260792 12.469993 L 1104.50249 12.469993 L 1186.175973 42.162205 Z M 1058.013879 42.162205 " stroke="#000000" stroke-width="25" stroke-opacity="1" stroke-miterlimit="4"/><path stroke-linecap="butt" transform="matrix(0.0490712, 0, 0, 0.0490712, 3.093751, 0.0169892)" fill-opacity="1" fill="#f9a5b4" fill-rule="nonzero" stroke-linejoin="round" d="M 899.602347 929.664803 L 773.191537 883.733419 L 819.998563 598.115039 L 946.409373 644.126026 Z M 899.602347 929.664803 " stroke="#000000" stroke-width="25" stroke-opacity="1" stroke-miterlimit="4"/><path stroke-linecap="butt" transform="matrix(0.0490712, 0, 0, 0.0490712, 3.093751, 0.0169892)" fill-opacity="1" fill="#f9a5b4" fill-rule="nonzero" stroke-linejoin="round" d="M 1184.902312 417.494051 L 1058.491502 371.483063 L 1116.681869 16.927805 L 1243.172283 62.938793 Z M 1184.902312 417.494051 " stroke="#000000" stroke-width="25" stroke-opacity="1" stroke-miterlimit="4"/><path stroke-linecap="butt" transform="matrix(0.0490712, 0, 0, 0.0490712, 3.093751, 0.0169892)" fill-opacity="1" fill="#f9a5b4" fill-rule="nonzero" stroke-linejoin="round" d="M 804.316617 1510.772432 L 677.905807 1464.761445 L 736.01657 1110.126583 L 862.42738 1156.137571 Z M 804.316617 1510.772432 " stroke="#000000" stroke-width="25" stroke-opacity="1" stroke-miterlimit="4"/><path stroke-linecap="butt" transform="matrix(0.0490712, 0, 0, 0.0490712, 3.093751, 0.0169892)" fill-opacity="1" fill="#f9a5b4" fill-rule="nonzero" stroke-linejoin="round" d="M 1100.920319 929.585199 L 974.509509 883.574211 L 1021.396138 598.035435 L 1147.886552 643.966819 Z M 1100.920319 929.585199 " stroke="#000000" stroke-width="25" stroke-opacity="1" stroke-miterlimit="4"/><path stroke-linecap="butt" transform="matrix(0.0490712, 0, 0, 0.0490712, 3.093751, 0.0169892)" fill-opacity="1" fill="#f9a5b4" fill-rule="nonzero" stroke-linejoin="round" d="M 1197.002088 421.872259 L 1115.328604 392.180047 L 1249.779397 392.180047 L 1331.532484 421.872259 Z M 1197.002088 421.872259 " stroke="#000000" stroke-width="25" stroke-opacity="1" stroke-miterlimit="4"/><path stroke-linecap="butt" transform="matrix(0.0490712, 0, 0, 0.0490712, 3.093751, 0.0169892)" fill-opacity="1" fill="#f9a5b4" fill-rule="nonzero" stroke-linejoin="round" d="M 862.984606 1485.538033 L 944.737693 1515.230244 L 816.416392 1515.230244 L 734.663305 1485.538033 Z M 862.984606 1485.538033 " stroke="#000000" stroke-width="25" stroke-opacity="1" stroke-miterlimit="4"/><path stroke-linecap="butt" transform="matrix(0.0490712, 0, 0, 0.0490712, 3.093751, 0.0169892)" fill-opacity="1" fill="#f9a5b4" fill-rule="nonzero" stroke-linejoin="round" d="M 1216.664223 593.577623 L 1298.41731 623.269835 L 1163.966517 623.269835 L 1082.293034 593.577623 Z M 1216.664223 593.577623 " stroke="#000000" stroke-width="25" stroke-opacity="1" stroke-miterlimit="4"/><path stroke-linecap="butt" transform="matrix(0.0490712, 0, 0, 0.0490712, 3.093751, 0.0169892)" fill-opacity="1" fill="#f9a5b4" fill-rule="nonzero" stroke-linejoin="round" d="M 1005.714193 1510.772432 L 879.303382 1464.761445 L 937.493749 1110.126583 L 1063.904559 1156.137571 Z M 1005.714193 1510.772432 " stroke="#000000" stroke-width="25" stroke-opacity="1" stroke-miterlimit="4"/><path stroke-linecap="butt" transform="matrix(0.0490712, 0, 0, 0.0490712, 3.093751, 0.0169892)" fill-opacity="1" fill="#f9a5b4" fill-rule="nonzero" stroke-linejoin="round" d="M 1113.020095 933.963407 L 1031.267008 904.271195 L 1165.001366 904.271195 L 1246.67485 933.963407 Z M 1113.020095 933.963407 " stroke="#000000" stroke-width="25" stroke-opacity="1" stroke-miterlimit="4"/><path stroke-linecap="butt" transform="matrix(0.0490712, 0, 0, 0.0490712, 3.093751, 0.0169892)" fill-opacity="1" fill="#f9a5b4" fill-rule="nonzero" stroke-linejoin="round" d="M 1359.393809 618.891627 L 1232.982999 572.880639 L 1262.03838 396.637859 L 1388.369587 442.569243 Z M 1359.393809 618.891627 " stroke="#000000" stroke-width="25" stroke-opacity="1" stroke-miterlimit="4"/><path stroke-linecap="butt" transform="matrix(0.0490712, 0, 0, 0.0490712, 3.093751, 0.0169892)" fill-opacity="1" fill="#f9a5b4" fill-rule="nonzero" stroke-linejoin="round" d="M 1131.169758 1105.668771 L 1212.922845 1135.360983 L 1080.064128 1135.360983 L 998.390645 1105.668771 Z M 1131.169758 1105.668771 " stroke="#000000" stroke-width="25" stroke-opacity="1" stroke-miterlimit="4"/><path stroke-linecap="butt" transform="matrix(0.0490712, 0, 0, 0.0490712, 3.093751, 0.0169892)" fill-opacity="1" fill="#f9a5b4" fill-rule="nonzero" stroke-linejoin="round" d="M 1273.899344 1130.982775 L 1147.40893 1084.971787 L 1177.021538 908.729007 L 1303.511952 954.660391 Z M 1273.899344 1130.982775 " stroke="#000000" stroke-width="25" stroke-opacity="1" stroke-miterlimit="4"/><g clip-path="url(#89ebe8ef9a)"><path fill="#c4544e" d="M 54.34375 19.261719 L 63.808594 19.261719 L 62.386719 27.917969 L 52.203125 27.917969 L 52.121094 28.433594 L 49.617188 43.679688 L 49.5 44.390625 L 59.644531 44.390625 L 58.191406 53.046875 L 48.085938 53.046875 L 48.003906 53.5625 L 45.03125 71.683594 L 36.386719 71.683594 L 39.324219 53.757812 L 39.441406 53.046875 L 22.679688 53.046875 L 22.59375 53.5625 L 19.621094 71.683594 L 10.980469 71.683594 L 13.917969 53.757812 L 14.035156 53.046875 L 3.820312 53.046875 L 5.273438 44.390625 L 15.453125 44.390625 L 15.539062 43.875 L 18.039062 28.628906 L 18.160156 27.917969 L 8.015625 27.917969 L 9.4375 19.269531 L 19.578125 19.269531 L 19.660156 18.753906 L 22.632812 0.628906 L 31.273438 0.628906 L 28.335938 18.554688 L 28.21875 19.269531 L 44.984375 19.269531 L 45.070312 18.753906 L 48.042969 0.628906 L 56.679688 0.628906 L 53.738281 18.550781 L 53.621094 19.261719 Z M 40.34375 44.398438 L 40.863281 44.398438 L 40.945312 43.882812 L 43.449219 28.636719 L 43.566406 27.921875 L 26.800781 27.921875 L 26.714844 28.4375 L 24.214844 43.683594 L 24.097656 44.398438 Z M 40.34375 44.398438 " fill-opacity="1" fill-rule="nonzero"/></g><g clip-path="url(#3e27e88a88)"><path stroke-linecap="butt" transform="matrix(0.0490712, 0, 0, 0.0490712, 3.093751, 0.0169892)" fill="none" stroke-linejoin="miter" d="M 1044.401632 392.180047 L 1237.281603 392.180047 L 1208.305825 568.582035 L 1000.778758 568.582035 L 999.107079 579.089734 L 948.081052 889.783307 L 945.692939 904.271195 L 1152.423968 904.271195 L 1122.81136 1080.673183 L 916.876369 1080.673183 L 915.204689 1091.180882 L 854.626209 1460.46284 L 678.463033 1460.46284 L 738.325079 1095.161071 L 740.713193 1080.673183 L 399.133352 1080.673183 L 397.382069 1091.180882 L 336.803588 1460.46284 L 160.720016 1460.46284 L 220.582062 1095.161071 L 222.970176 1080.673183 L 14.806279 1080.673183 L 44.418887 904.271195 L 251.86635 904.271195 L 253.617633 893.763496 L 304.564056 583.069923 L 307.031773 568.582035 L 100.300744 568.582035 L 129.276521 392.339255 L 335.927947 392.339255 L 337.599626 381.831555 L 398.178107 12.469993 L 574.261679 12.469993 L 514.399632 377.771762 L 512.011519 392.339255 L 853.670964 392.339255 L 855.422247 381.831555 L 916.000727 12.469993 L 1092.004696 12.469993 L 1032.063046 377.692158 L 1029.674932 392.180047 Z M 759.101667 904.430403 L 769.688971 904.430403 L 771.36065 893.922703 L 822.386676 583.229131 L 824.77479 568.661638 L 483.115345 568.661638 L 481.364062 579.169338 L 430.417639 889.86291 L 428.029526 904.430403 Z M 759.101667 904.430403 " stroke="#000000" stroke-width="25" stroke-opacity="1" stroke-miterlimit="4"/></g></svg>