<svg xmlns="http://www.w3.org/2000/svg" xmlns:xlink="http://www.w3.org/1999/xlink" width="100" zoomAndPan="magnify" viewBox="0 0 75 74.999997" height="100" preserveAspectRatio="xMidYMid meet" version="1.0"><defs><clipPath id="195b580d96"><path d="M 0 0 L 75 0 L 75 71.25 L 0 71.25 Z M 0 0 " clip-rule="nonzero"/></clipPath></defs><path fill="#c4544e" d="M 72.574219 52.347656 C 72.425781 50.3125 72.101562 48.246094 71.804688 46.226562 C 71.480469 44.074219 71.078125 41.917969 70.679688 39.761719 C 69.894531 35.4375 68.832031 31.191406 67.855469 26.910156 C 67.011719 23.226562 66.375 19.4375 64.054688 16.34375 C 61.953125 13.566406 59.007812 11.234375 55.859375 9.792969 C 54.054688 8.976562 52.128906 8.425781 50.222656 7.921875 C 48.195312 7.386719 45.992188 6.953125 43.90625 7.386719 C 43.59375 6.539062 42.75 6.09375 41.9375 5.738281 C 40.753906 5.214844 39.4375 4.964844 38.164062 4.753906 C 35.472656 4.324219 32.707031 4.160156 29.984375 4.382812 C 26.359375 4.695312 22.558594 5.691406 19.46875 7.683594 C 18.3125 8.425781 17.335938 9.363281 16.480469 10.402344 C 13.90625 11.722656 12.308594 14.546875 11.066406 17.042969 C 10.371094 18.425781 9.808594 19.867188 9.246094 21.308594 C 8.535156 23.121094 7.738281 24.875 6.9375 26.644531 C 6.09375 28.46875 5.265625 30.3125 4.570312 32.199219 C 3.890625 34.058594 3.402344 35.972656 3.003906 37.90625 C 2.175781 41.875 1.804688 45.929688 1.878906 49.984375 C 1.921875 52.214844 2.117188 54.445312 2.457031 56.65625 C 2.75 58.558594 3.164062 60.417969 3.980469 62.183594 C 4.75 63.863281 5.785156 65.4375 7.027344 66.792969 C 8.164062 68.039062 9.570312 69.199219 11.226562 69.613281 C 11.375 69.660156 11.507812 69.628906 11.628906 69.585938 C 11.464844 69.214844 11.332031 68.828125 11.226562 68.425781 C 11.09375 68.351562 10.960938 68.292969 10.828125 68.21875 C 10.8125 67.9375 10.769531 67.652344 10.769531 67.429688 C 10.785156 66.777344 10.796875 66.136719 10.769531 65.484375 C 10.738281 64.90625 10.726562 64.324219 10.710938 63.746094 C 10.785156 63.894531 10.886719 64.546875 10.976562 64.679688 C 11.464844 65.46875 11.40625 66.046875 11.703125 66.910156 C 12.1875 68.308594 13.164062 69.152344 14.585938 69.792969 C 15.414062 70.164062 16.332031 70.386719 17.261719 70.492188 C 16.65625 69.464844 16.09375 68.367188 16.375 67.164062 C 16.390625 67.117188 16.40625 67.089844 16.421875 67.058594 C 16.285156 66.6875 16.863281 66.539062 16.996094 66.894531 C 17.648438 68.769531 19.261719 69.734375 20.917969 70.566406 C 22.128906 70.507812 23.328125 70.34375 24.527344 70.164062 C 24.214844 69.703125 23.949219 69.199219 23.832031 68.695312 C 23.785156 68.648438 23.726562 68.605469 23.683594 68.558594 C 23.445312 68.367188 23.667969 68.054688 23.921875 68.070312 C 24.082031 67.964844 24.320312 67.996094 24.347656 68.234375 C 24.347656 68.277344 24.363281 68.320312 24.378906 68.382812 C 24.925781 68.871094 25.414062 69.4375 25.933594 69.957031 C 26.066406 69.941406 26.199219 69.925781 26.347656 69.898438 C 25.992188 69.363281 25.738281 68.769531 25.429688 68.144531 C 25.132812 67.535156 24.570312 66.703125 24.761719 65.988281 C 24.851562 65.632812 25.398438 65.765625 25.339844 66.109375 C 25.355469 66.121094 25.371094 66.152344 25.382812 66.167969 C 25.828125 66.925781 26.375 67.773438 26.953125 68.410156 C 27.394531 68.902344 27.929688 69.273438 28.445312 69.675781 C 32.011719 69.347656 36.285156 68.902344 40.902344 65.453125 C 42.011719 67.089844 43.105469 66.984375 45.265625 66.910156 C 46.6875 66.867188 47.515625 67.148438 48.519531 67.179688 C 48.890625 66.523438 49.15625 65.8125 49.71875 65.289062 C 49.835938 65.171875 50.015625 65.171875 50.132812 65.289062 C 50.519531 65.664062 50.578125 66.269531 50.488281 66.894531 C 52.277344 66.40625 54.128906 66.121094 55.917969 65.632812 C 56.109375 64.992188 56.316406 64.371094 56.566406 63.761719 C 56.566406 63.761719 56.566406 63.761719 56.566406 63.746094 C 56.582031 63.714844 56.582031 63.699219 56.597656 63.671875 C 56.730469 63.359375 57.234375 63.582031 57.144531 63.894531 C 57.011719 64.382812 56.910156 64.859375 56.804688 65.351562 C 58.164062 64.875 59.304688 64.117188 60.132812 62.882812 C 60.886719 61.769531 61.257812 60.445312 61.582031 59.152344 C 61.714844 58.632812 61.835938 58.113281 61.953125 57.59375 C 61.96875 57.699219 61.980469 57.785156 61.996094 57.875 C 62.101562 58.605469 62.175781 59.347656 62.203125 60.074219 C 62.277344 61.695312 61.910156 63.238281 61.066406 64.621094 C 60.917969 64.859375 60.886719 65.171875 61.078125 65.394531 C 61.152344 65.484375 61.226562 65.542969 61.332031 65.589844 C 61.464844 65.632812 61.613281 65.632812 61.746094 65.601562 C 62.691406 65.675781 63.726562 65.097656 64.496094 64.636719 C 65.621094 63.96875 66.347656 63.195312 66.789062 61.960938 C 66.9375 61.546875 67.070312 61.128906 67.234375 60.730469 C 67.308594 60.699219 67.394531 60.640625 67.457031 60.550781 C 67.707031 60.253906 68.003906 60 68.328125 59.761719 C 68.402344 59.75 68.460938 59.734375 68.535156 59.734375 C 69.394531 59.601562 71.109375 59.214844 70.785156 57.949219 C 70.769531 57.875 70.738281 57.816406 70.695312 57.757812 C 70.859375 57.59375 71.007812 57.414062 71.152344 57.238281 C 72.425781 55.886719 72.707031 54.175781 72.574219 52.347656 Z M 72.574219 52.347656 " fill-opacity="1" fill-rule="nonzero"/><path fill="#b23e3b" d="M 10.636719 62.867188 C 10.859375 64.398438 10.992188 66.121094 10.636719 67.636719 C 10.519531 68.144531 9.851562 68.1875 9.71875 67.652344 C 9.421875 66.375 9.171875 65.082031 8.933594 63.789062 C 8.726562 62.585938 8.476562 61.367188 8.433594 60.148438 C 8.433594 59.957031 8.519531 59.824219 8.640625 59.75 C 8.507812 59.496094 8.402344 59.226562 8.386719 58.960938 C 8.371094 58.8125 8.578125 58.679688 8.683594 58.828125 C 9.527344 60.03125 10.414062 61.398438 10.636719 62.867188 Z M 8.625 42.15625 C 8.714844 42.914062 8.875 43.671875 9.007812 44.445312 C 9.128906 45.113281 9.054688 46.019531 9.527344 46.539062 C 9.644531 46.671875 9.867188 46.6875 9.984375 46.523438 C 10.339844 46.003906 10.164062 45.378906 10.074219 44.785156 C 9.941406 43.9375 9.777344 43.105469 9.644531 42.257812 C 9.527344 41.441406 9.480469 40.625 9.410156 39.792969 C 9.347656 39.066406 9.320312 38.21875 8.980469 37.5625 C 8.832031 37.28125 8.433594 37.339844 8.371094 37.652344 C 8.253906 38.308594 8.386719 39.035156 8.433594 39.703125 C 8.492188 40.519531 8.519531 41.339844 8.625 42.15625 Z M 36.09375 31.621094 C 35.871094 30.625 36.257812 29.792969 36.285156 28.8125 C 36.300781 28.53125 35.945312 28.234375 35.695312 28.484375 C 34.925781 29.257812 34.851562 30.535156 34.957031 31.574219 C 35.074219 32.78125 35.726562 34.070312 36.566406 34.933594 C 37.070312 35.453125 37.871094 34.828125 37.441406 34.222656 C 36.863281 33.390625 36.316406 32.632812 36.09375 31.621094 Z M 22.292969 33.921875 C 22.351562 34.308594 22.898438 34.28125 22.957031 33.910156 C 23.121094 32.867188 23.03125 31.785156 23.0625 30.730469 C 23.089844 29.601562 23.164062 28.457031 23.359375 27.339844 C 23.757812 25.023438 24.835938 23.226562 26.894531 22.050781 C 27.117188 21.933594 27.042969 21.53125 26.761719 21.605469 C 24.378906 22.15625 23.164062 24.414062 22.632812 26.628906 C 22.335938 27.832031 22.25 29.078125 22.203125 30.328125 C 22.175781 31.5 22.117188 32.75 22.292969 33.921875 Z M 18.667969 36.152344 C 18.890625 36.300781 19.273438 36.210938 19.304688 35.886719 C 19.347656 35.128906 19.273438 34.371094 19.304688 33.625 C 19.335938 32.824219 19.4375 32.007812 19.585938 31.21875 C 19.703125 30.625 19.867188 30.058594 20.042969 29.511719 C 20.414062 28.664062 20.8125 27.832031 21.152344 26.96875 C 21.199219 26.867188 21.183594 26.761719 21.140625 26.671875 C 21.152344 26.613281 21.183594 26.570312 21.199219 26.507812 C 21.285156 26.269531 20.976562 26.121094 20.828125 26.300781 C 20.796875 26.34375 20.769531 26.390625 20.738281 26.417969 C 20.636719 26.417969 20.546875 26.480469 20.472656 26.582031 C 18.992188 29.226562 17.53125 32.839844 18.34375 35.929688 C 18.402344 36.0625 18.535156 36.152344 18.667969 36.152344 Z M 15.992188 36.464844 C 16.078125 36.554688 16.285156 36.523438 16.347656 36.40625 C 16.597656 35.972656 16.464844 35.542969 16.421875 35.054688 C 16.375 34.445312 16.433594 33.835938 16.523438 33.226562 C 16.714844 32.050781 17.292969 30.964844 17.441406 29.792969 C 17.46875 29.511719 17.054688 29.316406 16.910156 29.585938 C 16.332031 30.582031 16.007812 31.828125 15.769531 32.957031 C 15.636719 33.582031 15.589844 34.222656 15.605469 34.859375 C 15.605469 35.425781 15.546875 36.0625 15.992188 36.464844 Z M 56.613281 32.570312 C 56.597656 32.617188 56.582031 32.675781 56.582031 32.71875 C 56.65625 33.878906 57.042969 34.964844 57.324219 36.078125 C 57.484375 36.703125 57.589844 37.355469 57.605469 37.996094 C 57.617188 38.46875 57.457031 38.992188 57.8125 39.375 C 57.898438 39.464844 58.03125 39.511719 58.152344 39.449219 C 58.492188 39.289062 58.652344 38.929688 58.714844 38.515625 C 58.90625 38.515625 59.082031 38.425781 59.15625 38.1875 C 59.4375 37.402344 59.214844 36.449219 59.023438 35.664062 C 58.773438 34.652344 58.402344 33.699219 57.957031 32.765625 C 57.558594 31.902344 57.085938 31.042969 56.554688 30.253906 C 56.125 29.628906 55.695312 28.632812 54.984375 28.308594 C 54.894531 28.261719 54.75 28.335938 54.75 28.457031 C 54.75 29.125 55.265625 29.824219 55.578125 30.402344 C 55.933594 31.117188 56.273438 31.84375 56.613281 32.570312 Z M 61.007812 55.738281 C 60.695312 58.054688 60.871094 60.492188 59.496094 62.511719 C 58.566406 63.878906 56.613281 64.695312 56.894531 66.613281 C 56.96875 67.074219 57.558594 67.027344 57.78125 66.730469 C 58.445312 65.824219 60.472656 64.546875 60.148438 63.195312 C 60.355469 62.898438 60.53125 62.601562 60.695312 62.289062 C 61.167969 61.382812 61.285156 60.328125 61.390625 59.316406 C 61.492188 58.144531 61.582031 56.910156 61.433594 55.738281 C 61.375 55.46875 61.035156 55.46875 61.007812 55.738281 Z M 56.480469 60.492188 C 56.449219 60.015625 56.359375 59.539062 56.214844 59.09375 C 56.214844 59.09375 56.214844 59.078125 56.199219 59.078125 C 56.214844 59.078125 56.226562 59.066406 56.242188 59.050781 C 56.863281 58.542969 57.085938 57.460938 57.394531 56.746094 C 57.796875 55.8125 58.136719 54.84375 58.476562 53.894531 C 58.492188 53.835938 58.507812 53.789062 58.519531 53.730469 C 58.652344 53.566406 58.785156 53.402344 58.933594 53.238281 C 59.496094 52.675781 60.074219 52.363281 60.859375 52.214844 C 62.101562 51.960938 63.285156 51.886719 64.273438 50.996094 C 64.957031 50.402344 65.371094 49.585938 65.664062 48.738281 C 65.84375 48.441406 65.945312 48.113281 65.945312 47.785156 C 66.035156 47.460938 66.109375 47.117188 66.152344 46.777344 C 66.226562 46.226562 66.125 45.484375 66.316406 44.964844 C 66.375 44.816406 66.125 44.710938 66.078125 44.875 C 65.945312 45.304688 65.636719 45.648438 65.445312 46.0625 C 65.207031 46.597656 65.058594 47.164062 64.867188 47.710938 C 64.851562 47.757812 64.835938 47.816406 64.808594 47.859375 C 64.644531 48.054688 64.480469 48.246094 64.320312 48.441406 C 63.890625 48.945312 63.328125 49.363281 62.78125 49.71875 C 61.804688 50.359375 60.652344 50.757812 59.496094 50.863281 C 59.453125 50.804688 59.378906 50.757812 59.289062 50.757812 C 59.453125 49.910156 59.644531 48.8125 59.289062 48.070312 C 59.113281 47.699219 58.578125 47.710938 58.417969 48.085938 C 58.3125 48.335938 58.285156 48.605469 58.269531 48.855469 C 58.089844 48.8125 57.871094 48.945312 57.839844 49.152344 C 57.707031 49.835938 57.78125 50.519531 57.574219 51.203125 C 57.367188 51.917969 57.027344 52.601562 56.671875 53.253906 C 56.125 54.296875 55.503906 55.320312 55.105469 56.433594 C 54.984375 56.34375 54.824219 56.316406 54.660156 56.421875 C 54.496094 56.523438 54.320312 56.644531 54.140625 56.792969 C 54.140625 56.464844 53.726562 56.210938 53.476562 56.496094 C 53.371094 56.613281 53.238281 56.761719 53.136719 56.925781 C 52.945312 56.746094 52.574219 56.894531 52.542969 57.207031 C 52.53125 57.355469 52.53125 57.488281 52.515625 57.636719 C 52.367188 57.757812 52.261719 57.964844 52.367188 58.1875 C 52.589844 58.707031 52.394531 59.554688 52.335938 60.089844 C 52.277344 60.65625 52.203125 61.234375 52.070312 61.800781 C 51.980469 62.066406 51.910156 62.332031 51.835938 62.617188 C 51.582031 63.34375 51.214844 64.011719 50.902344 64.726562 C 50.53125 65.574219 50.339844 66.433594 50.3125 67.355469 C 50.3125 67.371094 50.3125 67.386719 50.3125 67.402344 C 50.265625 67.414062 50.207031 67.429688 50.164062 67.460938 C 49.894531 67.5625 49.941406 67.9375 50.238281 67.964844 C 50.710938 68.011719 51.285156 67.964844 51.773438 67.816406 C 52.441406 67.757812 53.121094 67.875 53.773438 67.609375 C 54.363281 67.355469 54.75 67.015625 55.015625 66.421875 C 55.371094 65.617188 55.726562 64.785156 56.019531 63.921875 C 56.480469 63.003906 56.910156 61.933594 56.804688 60.9375 C 56.804688 60.683594 56.671875 60.519531 56.480469 60.492188 Z M 36.554688 61.902344 C 36.820312 62.527344 36.910156 63.476562 36.40625 64.027344 C 35.871094 64.621094 34.984375 64.636719 34.246094 64.679688 C 31.953125 64.816406 29.660156 64.992188 27.367188 65.039062 C 26.273438 65.054688 25.175781 65.066406 24.082031 65.023438 C 24.140625 65.277344 24.171875 65.527344 24.246094 65.78125 C 24.363281 66.195312 24.496094 66.613281 24.660156 67.015625 C 24.835938 67.445312 25.03125 67.890625 25.222656 68.320312 C 25.339844 68.589844 25.519531 68.8125 25.429688 69.109375 C 25.398438 69.199219 25.3125 69.257812 25.207031 69.226562 C 24.835938 69.125 24.644531 68.648438 24.496094 68.320312 C 24.289062 67.890625 24.097656 67.460938 23.933594 67.015625 C 23.726562 66.449219 23.371094 65.664062 23.402344 64.992188 C 23.089844 64.980469 22.796875 64.964844 22.484375 64.933594 C 22.898438 66.0625 23.417969 67.132812 23.417969 68.382812 C 23.417969 68.410156 23.417969 68.425781 23.417969 68.457031 C 23.742188 68.945312 24.039062 69.4375 24.230469 70 C 24.320312 70.285156 24.039062 70.492188 23.785156 70.445312 C 23.3125 70.359375 22.914062 70.148438 22.589844 69.851562 C 22.558594 69.835938 22.53125 69.808594 22.5 69.777344 C 22.042969 69.332031 21.714844 68.722656 21.480469 68.097656 C 21.035156 67.296875 20.664062 66.464844 20.488281 65.617188 C 20.148438 65.113281 19.71875 64.726562 19.140625 64.519531 C 19.097656 64.503906 19.066406 64.472656 19.039062 64.429688 C 18.078125 64.222656 17.117188 63.953125 16.214844 63.566406 C 16.433594 64.296875 16.421875 65.082031 16.375 65.886719 C 16.285156 67.460938 16.714844 68.902344 17.027344 70.433594 C 17.101562 70.804688 16.65625 70.980469 16.433594 70.683594 C 15.503906 69.40625 15.015625 67.964844 14.734375 66.421875 C 14.570312 65.511719 14.453125 64.636719 14.066406 63.789062 C 13.847656 63.300781 13.59375 62.808594 13.359375 62.304688 C 12.738281 61.949219 12.128906 61.53125 11.582031 61.070312 C 10.398438 60.058594 9.527344 58.8125 8.933594 57.371094 C 8.832031 57.117188 9.171875 56.984375 9.304688 57.207031 C 10.089844 58.542969 11.183594 59.660156 12.484375 60.492188 C 12.691406 60.625 12.898438 60.742188 13.105469 60.878906 C 13.667969 60.863281 14.1875 60.996094 14.71875 61.21875 C 14.835938 61.265625 14.96875 61.324219 15.117188 61.398438 C 15.175781 61.308594 15.28125 61.234375 15.398438 61.265625 C 17.128906 61.695312 18.832031 62.214844 20.605469 62.4375 C 22.308594 62.644531 24.007812 62.675781 25.726562 62.691406 C 27.589844 62.707031 29.46875 62.75 31.347656 62.617188 C 32.75 62.511719 34.4375 62.660156 35.710938 61.976562 C 35.769531 61.949219 35.828125 61.933594 35.886719 61.917969 C 36.066406 61.679688 36.433594 61.605469 36.554688 61.902344 Z M 16.285156 62.214844 C 16.273438 62.214844 16.257812 62.199219 16.257812 62.199219 C 16.257812 62.199219 16.257812 62.199219 16.257812 62.214844 C 16.273438 62.214844 16.285156 62.214844 16.285156 62.214844 Z M 14.230469 62.867188 C 14.230469 62.839844 14.230469 62.824219 14.230469 62.792969 C 14.214844 62.78125 14.203125 62.78125 14.1875 62.765625 C 14.203125 62.792969 14.214844 62.824219 14.230469 62.867188 Z M 72.234375 50.121094 C 72.21875 50.074219 72.1875 50.046875 72.160156 50.015625 C 72.175781 49.183594 72.160156 48.367188 72.117188 47.535156 C 71.9375 44.382812 71.257812 41.265625 70.5625 38.203125 C 70.207031 36.65625 69.851562 35.113281 69.496094 33.566406 C 69.320312 32.765625 69.140625 31.960938 68.980469 31.160156 C 68.832031 30.433594 68.726562 29.660156 68.445312 28.960938 C 68.328125 28.679688 67.929688 28.769531 67.882812 29.050781 C 67.707031 30.402344 68.105469 31.917969 68.34375 33.253906 C 68.59375 34.726562 68.921875 36.183594 69.230469 37.652344 C 69.851562 40.582031 70.457031 43.523438 70.738281 46.507812 C 70.960938 48.902344 70.84375 51.265625 70.664062 53.640625 C 70.652344 53.804688 70.636719 53.96875 70.636719 54.148438 C 70.519531 54.59375 70.382812 55.039062 70.25 55.46875 C 70.175781 55.707031 70.089844 55.945312 70 56.195312 C 70.089844 55.589844 70.074219 54.933594 70.074219 54.414062 C 70.042969 53.078125 69.792969 51.785156 69.46875 50.476562 C 69.453125 50.445312 69.453125 50.417969 69.4375 50.402344 C 69.4375 49.390625 69.394531 48.394531 69.203125 47.402344 C 69.15625 47.191406 68.859375 47.238281 68.875 47.445312 C 69.023438 49.347656 68.742188 51.265625 68.726562 53.179688 C 68.714844 54.085938 68.757812 54.992188 68.742188 55.886719 C 68.742188 55.960938 68.742188 56.035156 68.726562 56.109375 C 68.683594 54.234375 68.164062 52.332031 67.722656 50.566406 C 67.648438 50.296875 67.292969 50.359375 67.308594 50.625 C 67.394531 52.140625 67.441406 53.671875 67.5 55.203125 C 67.542969 56.613281 67.457031 57.964844 66.894531 59.273438 C 66.464844 60.285156 65.769531 61.144531 64.984375 61.902344 C 64.140625 62.71875 63.089844 63.285156 62.25 64.101562 C 61.773438 64.5625 62.234375 65.453125 62.882812 65.128906 C 63.933594 64.605469 64.941406 63.699219 65.796875 62.898438 C 66.714844 62.035156 67.46875 61.042969 68.019531 59.910156 C 68.0625 59.824219 68.105469 59.71875 68.152344 59.628906 C 68.238281 59.808594 68.460938 59.910156 68.714844 59.835938 C 68.949219 59.761719 69.171875 59.601562 69.363281 59.40625 C 69.511719 59.496094 69.703125 59.527344 69.882812 59.453125 C 70.546875 59.214844 70.992188 58.617188 71.285156 57.90625 C 71.597656 57.625 71.835938 57.148438 71.996094 56.835938 C 72.351562 56.167969 72.53125 55.394531 72.648438 54.636719 C 72.796875 53.253906 72.824219 51.425781 72.234375 50.121094 Z M 62.144531 61.726562 C 62.46875 61.21875 62.558594 60.65625 62.691406 60.074219 C 62.839844 59.390625 63.003906 58.707031 63.136719 58.011719 C 63.386719 56.6875 63.550781 55.320312 63.03125 54.058594 C 62.914062 53.761719 62.53125 53.921875 62.53125 54.207031 C 62.574219 55.453125 62.457031 56.6875 62.21875 57.90625 C 62.101562 58.515625 61.953125 59.125 61.820312 59.734375 C 61.671875 60.359375 61.492188 60.96875 61.65625 61.589844 C 61.703125 61.8125 61.996094 61.949219 62.144531 61.726562 Z M 56.820312 19.140625 C 57.707031 20.566406 58.328125 22.035156 58.933594 23.597656 C 59.246094 24.382812 59.71875 25.097656 60.074219 25.871094 C 60.429688 26.644531 60.695312 27.445312 60.871094 28.277344 C 61.050781 29.09375 61.109375 29.941406 61.125 30.789062 C 61.140625 31.574219 60.902344 32.378906 61.007812 33.152344 C 61.050781 33.449219 61.421875 33.433594 61.539062 33.210938 C 61.910156 32.527344 61.910156 31.636719 61.9375 30.878906 C 61.96875 30.105469 61.9375 29.363281 61.835938 28.605469 C 61.613281 27.101562 61.050781 25.558594 60.207031 24.296875 C 59.273438 22.882812 58.800781 21.265625 57.929688 19.808594 C 57.117188 18.441406 56.226562 17.222656 55.710938 15.707031 C 55.664062 15.585938 55.5625 15.558594 55.472656 15.574219 C 55.371094 15.574219 55.28125 15.632812 55.28125 15.765625 C 55.265625 16.269531 55.546875 16.820312 55.753906 17.265625 C 56.050781 17.933594 56.433594 18.542969 56.820312 19.140625 Z M 62.484375 27.710938 C 62.675781 28.21875 62.8125 28.738281 62.914062 29.273438 C 62.988281 29.675781 62.929688 30.121094 63.121094 30.492188 C 63.195312 30.640625 63.417969 30.683594 63.519531 30.535156 C 63.964844 29.882812 63.507812 28.753906 63.285156 28.070312 C 62.945312 27 62.425781 26.035156 61.878906 25.054688 C 61.746094 24.828125 61.421875 24.980469 61.507812 25.214844 C 61.835938 26.046875 62.175781 26.867188 62.484375 27.710938 Z M 18.652344 22.050781 C 18.933594 21.574219 19.066406 21.027344 19.363281 20.550781 C 19.703125 19.984375 20.105469 19.464844 20.53125 18.976562 C 20.976562 18.457031 21.449219 17.949219 21.921875 17.445312 C 22.1875 17.164062 22.605469 16.851562 22.558594 16.449219 C 22.558594 16.390625 22.484375 16.316406 22.425781 16.316406 C 21.96875 16.316406 21.640625 16.835938 21.347656 17.148438 C 20.859375 17.667969 20.371094 18.203125 19.894531 18.753906 C 19.261719 19.511719 18.089844 20.863281 18.3125 21.960938 C 18.34375 22.109375 18.566406 22.199219 18.652344 22.050781 Z M 18.714844 19.703125 C 19.4375 18.664062 20.578125 18.011719 21.273438 16.96875 C 21.332031 16.878906 21.226562 16.792969 21.140625 16.851562 C 20.132812 17.519531 19.140625 18.515625 18.476562 19.539062 C 18.386719 19.6875 18.609375 19.851562 18.714844 19.703125 Z M 34.675781 28.039062 C 35 27.3125 34.96875 26.496094 35 25.707031 C 35.03125 24.769531 35.042969 23.835938 35.089844 22.898438 C 35.191406 21.039062 35.859375 19.289062 36.007812 17.429688 C 36.019531 17.175781 35.664062 17.148438 35.621094 17.386719 C 35.28125 19.140625 34.660156 20.789062 34.480469 22.570312 C 34.394531 23.507812 34.394531 24.445312 34.378906 25.378906 C 34.363281 26.242188 34.203125 27.148438 34.363281 28.011719 C 34.394531 28.171875 34.601562 28.1875 34.675781 28.039062 Z M 33.773438 24.296875 C 33.847656 23.730469 33.773438 23.164062 33.800781 22.601562 C 33.832031 21.960938 33.921875 21.308594 34.007812 20.667969 C 34.039062 20.507812 33.757812 20.433594 33.714844 20.59375 C 33.386719 21.753906 32.945312 23.179688 33.417969 24.355469 C 33.492188 24.519531 33.742188 24.472656 33.773438 24.296875 Z M 13.59375 21.117188 C 13.933594 20.757812 14.113281 20.222656 14.363281 19.808594 C 14.660156 19.289062 15.042969 18.886719 15.472656 18.46875 C 15.5625 18.382812 15.472656 18.21875 15.355469 18.277344 C 14.824219 18.46875 14.46875 19.003906 14.15625 19.464844 C 13.859375 19.925781 13.492188 20.492188 13.433594 21.039062 C 13.417969 21.144531 13.535156 21.175781 13.59375 21.117188 Z M 13.59375 21.117188 " fill-opacity="1" fill-rule="nonzero"/><path fill="#e08c6e" d="M 12.425781 23.226562 C 11.996094 24.382812 11.300781 25.410156 10.886719 26.582031 C 10.503906 27.652344 10.296875 28.769531 10.164062 29.898438 C 9.894531 32.257812 9.941406 34.636719 9.835938 37.015625 C 9.808594 37.710938 8.726562 37.59375 8.757812 36.894531 C 8.890625 34.414062 8.800781 31.886719 9.246094 29.4375 C 9.628906 27.253906 10.472656 24.546875 12.203125 23.078125 C 12.308594 22.972656 12.46875 23.089844 12.425781 23.226562 Z M 17.542969 32.363281 C 17.617188 31.917969 17.691406 31.488281 17.78125 31.042969 C 17.871094 30.550781 18.03125 30.046875 17.929688 29.554688 C 17.898438 29.421875 17.707031 29.347656 17.617188 29.480469 C 17.542969 29.585938 17.5 29.703125 17.457031 29.824219 C 17.382812 29.824219 17.292969 29.867188 17.277344 29.972656 C 17.234375 30.34375 17.1875 30.714844 17.144531 31.085938 C 17.027344 31.621094 16.910156 32.171875 16.820312 32.71875 C 16.628906 33.921875 16.613281 35.15625 17.054688 36.316406 C 17.234375 36.761719 17.914062 36.449219 17.738281 36.003906 C 17.617188 35.722656 17.542969 35.4375 17.484375 35.140625 C 17.441406 34.578125 17.457031 33.996094 17.484375 33.433594 C 17.5 33.078125 17.515625 32.71875 17.542969 32.363281 Z M 21.40625 26.433594 C 21.375 26.210938 21.007812 26.210938 21.007812 26.449219 C 21.019531 27.757812 21.199219 29.050781 21.390625 30.34375 C 21.582031 31.648438 21.640625 33.0625 21.96875 34.339844 C 22.054688 34.710938 22.691406 34.769531 22.691406 34.324219 C 22.691406 33.0625 22.308594 31.738281 22.101562 30.492188 C 21.863281 29.140625 21.640625 27.785156 21.40625 26.433594 Z M 36.6875 34.308594 C 36.167969 34.058594 35.519531 34.042969 34.96875 33.921875 C 34.394531 33.804688 33.832031 33.6875 33.269531 33.492188 C 32.128906 33.089844 31.140625 32.40625 30.355469 31.488281 C 29.320312 30.269531 28.667969 28.664062 28.226562 27.148438 C 27.738281 25.484375 27.441406 23.671875 27.1875 21.960938 C 27.160156 21.769531 26.847656 21.769531 26.835938 21.960938 C 26.804688 22.839844 26.773438 23.699219 26.789062 24.578125 C 26.804688 25.558594 27.054688 26.582031 27.292969 27.535156 C 27.707031 29.183594 28.417969 30.847656 29.496094 32.171875 C 30.339844 33.210938 31.480469 33.953125 32.707031 34.445312 C 33.832031 34.890625 35.519531 35.363281 36.703125 34.980469 C 37.027344 34.875 36.9375 34.429688 36.6875 34.308594 Z M 39.984375 32.71875 C 39.496094 32.378906 39.054688 31.960938 38.625 31.546875 C 38.210938 31.128906 37.824219 30.667969 37.457031 30.207031 C 37.175781 29.867188 36.910156 29.363281 36.539062 29.109375 C 36.433594 29.035156 36.300781 29.09375 36.285156 29.226562 C 36.242188 29.660156 36.554688 30.105469 36.773438 30.445312 C 37.128906 31.027344 37.589844 31.53125 38.046875 32.023438 C 38.507812 32.511719 38.992188 32.957031 39.527344 33.359375 C 39.882812 33.625 40.324219 33.9375 40.785156 33.773438 C 40.902344 33.730469 40.976562 33.566406 40.902344 33.449219 C 40.695312 33.089844 40.3125 32.941406 39.984375 32.71875 Z M 50.871094 39.792969 C 50.382812 39.199219 49.6875 38.796875 49.113281 38.277344 C 48.507812 37.726562 47.988281 37.074219 47.484375 36.421875 C 46.449219 35.097656 45.636719 33.613281 44.96875 32.066406 C 44.304688 30.507812 43.800781 28.871094 43.371094 27.238281 C 42.972656 25.707031 42.8125 24.058594 42.234375 22.585938 C 42.144531 22.378906 41.804688 22.421875 41.789062 22.660156 C 41.671875 24.296875 42.128906 26.003906 42.5 27.578125 C 42.882812 29.257812 43.402344 30.890625 44.066406 32.480469 C 44.734375 34.042969 45.5625 35.542969 46.597656 36.878906 C 47.101562 37.535156 47.691406 38.128906 48.3125 38.691406 C 48.949219 39.289062 49.675781 40 50.519531 40.269531 C 50.796875 40.359375 51.078125 40.046875 50.871094 39.792969 Z M 55.828125 45.585938 C 55.058594 43.476562 53.875 41.621094 52.765625 39.675781 C 52.1875 38.664062 51.640625 37.625 51.035156 36.644531 C 50.445312 35.691406 49.867188 34.652344 49.039062 33.910156 C 48.847656 33.730469 48.609375 33.996094 48.683594 34.207031 C 49.039062 35.15625 49.617188 36.046875 50.074219 36.953125 C 50.546875 37.875 51.019531 38.78125 51.507812 39.703125 C 52.484375 41.53125 53.566406 43.269531 54.363281 45.1875 C 54.394531 45.261719 54.421875 45.320312 54.453125 45.394531 C 54.394531 45.425781 54.347656 45.46875 54.335938 45.527344 C 54.15625 46.523438 54.496094 47.59375 54.703125 48.558594 C 54.824219 49.125 54.925781 49.6875 55.03125 50.253906 C 55.117188 50.789062 55.089844 51.339844 55.371094 51.8125 C 55.382812 51.84375 55.414062 51.875 55.445312 51.902344 C 55.429688 52.140625 55.398438 52.378906 55.371094 52.601562 C 55.324219 52.988281 55.222656 53.375 55.25 53.746094 C 55 54.355469 54.660156 54.90625 54.453125 55.527344 C 54.378906 55.738281 54.585938 55.972656 54.808594 55.871094 C 56.285156 55.140625 56.820312 53.238281 56.910156 51.722656 C 57.011719 49.613281 56.554688 47.550781 55.828125 45.585938 Z M 61.703125 55.203125 C 61.613281 55.023438 61.285156 55.039062 61.285156 55.261719 C 61.316406 56.597656 62.054688 57.710938 62.367188 59.003906 C 62.542969 59.71875 62.53125 60.492188 62.515625 61.21875 C 62.5 62.140625 62.425781 63.078125 62.1875 63.96875 C 62.101562 64.339844 61.96875 64.710938 61.773438 65.039062 C 61.613281 65.304688 61.359375 65.46875 61.152344 65.691406 C 60.8125 66.0625 61.242188 66.597656 61.671875 66.554688 C 62.457031 66.449219 62.914062 65.46875 63.152344 64.800781 C 63.476562 63.847656 63.59375 62.824219 63.640625 61.828125 C 63.683594 60.9375 63.640625 60.015625 63.476562 59.125 C 63.226562 57.726562 62.335938 56.433594 61.703125 55.203125 Z M 69.6875 56.300781 C 69.628906 55.4375 69.421875 54.605469 69.203125 53.773438 C 69.007812 53.078125 68.816406 52.332031 68.417969 51.722656 C 68.34375 51.605469 68.105469 51.664062 68.105469 51.8125 C 68.105469 52.453125 68.296875 53.078125 68.460938 53.6875 C 68.640625 54.382812 68.773438 55.097656 68.875 55.824219 C 68.964844 56.570312 68.980469 57.296875 68.875 58.023438 C 68.773438 58.769531 68.34375 59.332031 68.152344 60.03125 C 68.0625 60.359375 68.402344 60.667969 68.699219 60.433594 C 69.777344 59.601562 69.777344 57.535156 69.6875 56.300781 Z M 67.558594 24.875 C 67.175781 23.65625 66.714844 22.46875 66.214844 21.292969 C 66.09375 21.027344 65.976562 20.773438 65.859375 20.519531 C 65.871094 20.359375 65.859375 20.179688 65.785156 19.972656 C 65.664062 19.570312 65.296875 19.183594 65.03125 18.886719 C 65.015625 18.871094 65 18.855469 65 18.855469 C 64.851562 18.605469 64.6875 18.351562 64.511719 18.097656 C 63.785156 17.074219 62.914062 16.136719 62.054688 15.214844 C 61.507812 14.636719 60.960938 14.042969 60.398438 13.449219 C 60.25 13.253906 60.089844 13.0625 59.910156 12.867188 C 59.835938 12.792969 59.761719 12.75 59.675781 12.707031 C 58.832031 11.875 57.929688 11.101562 56.9375 10.460938 C 55.945312 9.835938 54.882812 9.273438 53.800781 8.796875 C 52.796875 8.351562 51.597656 7.832031 50.488281 7.800781 C 50.3125 7.800781 50.25 8.007812 50.414062 8.097656 C 51.359375 8.574219 52.351562 8.945312 53.296875 9.449219 C 54.335938 10.015625 55.355469 10.625 56.359375 11.25 C 57.277344 12.171875 58.757812 13.476562 57.796875 14.726562 C 57.070312 15.660156 55.398438 15.855469 54.335938 16.078125 C 52.351562 16.496094 50.429688 16.910156 48.402344 17.074219 C 47.277344 17.164062 46.152344 17.207031 45.015625 17.191406 C 44.082031 17.175781 43.019531 17.027344 42.101562 17.238281 C 42.011719 17.253906 41.980469 17.386719 42.085938 17.429688 C 42.128906 17.445312 42.175781 17.460938 42.21875 17.476562 C 42.722656 18.160156 43.640625 18.53125 44.410156 18.796875 C 45.398438 19.125 46.433594 19.316406 47.46875 19.449219 C 49.75 19.75 52.070312 19.75 54.347656 19.570312 C 55.457031 19.480469 56.480469 19.183594 57.515625 18.828125 C 58.609375 18.457031 59.75 17.996094 60.917969 18.085938 C 61.878906 18.160156 62.765625 18.542969 63.59375 19.019531 C 63.742188 19.109375 63.890625 19.199219 64.023438 19.316406 C 64.527344 20.046875 64.96875 20.816406 65.355469 21.648438 C 65.871094 22.734375 66.300781 23.847656 66.6875 24.980469 C 67.054688 26.078125 67.335938 27.191406 67.675781 28.292969 C 67.765625 28.589844 68.164062 28.410156 68.152344 28.144531 C 68.152344 27.089844 67.871094 25.898438 67.558594 24.875 Z M 9.703125 68.144531 C 9.1875 67.773438 8.726562 67.328125 8.296875 66.867188 C 7.5 65.988281 6.847656 64.992188 6.273438 63.953125 C 5.074219 61.785156 4.082031 59.421875 3.519531 57.015625 C 2.425781 52.363281 2.675781 47.402344 3.34375 42.660156 C 3.507812 42.183594 3.683594 41.710938 3.847656 41.21875 C 4.15625 40.253906 4.289062 39.242188 4.453125 38.246094 C 4.792969 36.121094 5.503906 34.148438 6.285156 32.15625 C 7.054688 30.207031 7.8125 28.277344 8.460938 26.285156 C 9.066406 24.414062 9.6875 22.570312 10.621094 20.832031 C 11.507812 19.152344 12.75 17.726562 13.832031 16.183594 C 13.875 16.109375 13.933594 16.035156 13.980469 15.972656 C 14.246094 15.839844 14.527344 15.675781 14.808594 15.542969 C 15.621094 15.128906 16.449219 14.800781 17.351562 14.695312 C 17.738281 14.652344 18.121094 14.667969 18.507812 14.726562 C 18.566406 14.742188 18.640625 14.769531 18.714844 14.785156 C 18.757812 14.800781 18.800781 14.800781 18.847656 14.800781 C 19.347656 14.902344 19.835938 15.082031 20.324219 15.277344 C 20.445312 15.363281 20.5625 15.4375 20.679688 15.527344 C 20.796875 15.601562 20.960938 15.632812 21.109375 15.617188 C 21.582031 15.824219 22.054688 16.035156 22.53125 16.195312 C 23.359375 16.480469 24.230469 16.628906 25.074219 16.820312 C 25.976562 17.027344 26.878906 17.238281 27.78125 17.386719 C 29.480469 17.683594 31.242188 17.800781 32.914062 17.296875 C 33.03125 17.265625 33.136719 17.238281 33.238281 17.191406 C 33.460938 17.089844 33.433594 16.792969 33.226562 16.6875 C 32.929688 16.539062 32.574219 16.539062 32.25 16.507812 C 31.789062 16.464844 31.332031 16.390625 30.871094 16.300781 C 29.925781 16.121094 29.023438 15.8125 28.121094 15.484375 C 26.597656 14.949219 25 14.191406 23.832031 13.03125 C 22.972656 12.171875 22.335938 11.039062 22.160156 9.835938 C 22.128906 9.644531 22.117188 9.449219 22.128906 9.257812 C 22.144531 9.226562 22.160156 9.199219 22.175781 9.183594 C 22.351562 8.871094 22.589844 8.574219 22.871094 8.335938 C 24.867188 7.355469 26.996094 6.613281 29.171875 6.035156 C 30.324219 5.722656 31.480469 5.453125 32.675781 5.363281 C 33.90625 5.277344 35.164062 5.394531 36.375 5.585938 C 37.605469 5.78125 38.816406 6.078125 40.015625 6.40625 C 41.125 6.71875 42.367188 6.953125 43.253906 7.742188 C 43.726562 8.160156 44.273438 7.371094 43.832031 6.953125 C 43.179688 6.34375 42.382812 6.046875 41.539062 5.765625 C 40.5625 5.4375 39.570312 5.097656 38.566406 4.84375 C 36.640625 4.355469 34.703125 4.070312 32.722656 4.144531 C 32.054688 4.175781 31.40625 4.265625 30.738281 4.382812 C 30.058594 3.464844 28.3125 3.984375 27.410156 4.191406 C 25.828125 4.546875 24.4375 5.128906 23.03125 5.960938 C 22.515625 6.269531 21.996094 6.582031 21.492188 6.910156 C 20.398438 6.925781 19.480469 7.429688 18.59375 8.023438 C 17.765625 8.589844 16.953125 9.226562 16.242188 9.941406 C 15.519531 10.667969 14.867188 11.488281 14.304688 12.347656 C 13.90625 12.941406 13.179688 13.953125 13.371094 14.726562 C 13.164062 15.023438 12.945312 15.304688 12.738281 15.585938 C 12.558594 15.707031 12.394531 15.824219 12.21875 15.945312 C 12.070312 16.0625 12.070312 16.242188 12.144531 16.375 C 11.582031 17.132812 11.035156 17.890625 10.53125 18.664062 C 9.511719 20.238281 8.714844 21.933594 8.089844 23.6875 C 7.617188 25.039062 7.21875 26.40625 6.761719 27.757812 C 6.300781 29.109375 5.753906 30.417969 5.238281 31.738281 C 4.703125 33.089844 4.214844 34.445312 3.832031 35.824219 C 3.445312 37.207031 3.34375 38.632812 3.105469 40.046875 C 2.882812 41.382812 2.351562 42.660156 2.011719 43.984375 C 1.703125 45.214844 1.554688 46.449219 1.554688 47.726562 C 1.582031 50.550781 1.820312 53.464844 2.382812 56.226562 C 2.382812 56.257812 2.410156 56.285156 2.425781 56.300781 C 2.515625 56.730469 2.605469 57.179688 2.707031 57.609375 C 3.328125 60.148438 4.410156 62.644531 5.710938 64.90625 C 6.316406 65.945312 7.011719 66.925781 7.839844 67.785156 C 8.640625 68.617188 9.675781 69.554688 10.8125 69.835938 C 11.257812 69.957031 11.40625 69.316406 11.109375 69.066406 C 10.664062 68.722656 10.148438 68.46875 9.703125 68.144531 Z M 56.449219 58.917969 C 56.273438 58.84375 56.09375 59.003906 56.183594 59.183594 C 56.464844 59.777344 56.878906 60.253906 57.117188 60.890625 C 57.335938 61.515625 57.425781 62.183594 57.457031 62.839844 C 57.5 64.207031 57.042969 65.335938 56.554688 66.570312 C 56.347656 67.105469 57.117188 67.3125 57.394531 66.925781 C 58.238281 65.78125 58.445312 64.027344 58.359375 62.660156 C 58.253906 61.414062 57.707031 59.480469 56.449219 58.917969 Z M 50.976562 63.96875 C 50.738281 63.714844 50.414062 64.042969 50.53125 64.308594 C 50.785156 64.90625 50.871094 65.601562 50.871094 66.242188 C 50.859375 66.746094 50.578125 67.328125 50.796875 67.800781 C 50.871094 67.949219 51.050781 67.964844 51.183594 67.90625 C 51.746094 67.625 51.730469 66.613281 51.730469 66.0625 C 51.714844 65.261719 51.523438 64.546875 50.976562 63.96875 Z M 29.246094 68.945312 C 28.417969 68.382812 27.664062 67.726562 26.980469 66.984375 C 26.226562 66.167969 25.886719 65.261719 25.414062 64.28125 C 25.28125 63.996094 24.894531 64.160156 24.882812 64.429688 C 24.808594 65.46875 25.519531 66.496094 26.125 67.28125 C 26.863281 68.234375 27.8125 69.019531 28.800781 69.703125 C 29.261719 70.046875 29.703125 69.273438 29.246094 68.945312 Z M 25.488281 68.722656 C 25.058594 68.308594 24.675781 67.875 24.289062 67.429688 C 23.550781 66.554688 23.152344 65.617188 22.664062 64.621094 C 22.605469 64.519531 22.410156 64.53125 22.394531 64.652344 C 22.21875 65.707031 23.121094 66.867188 23.714844 67.636719 C 24.082031 68.144531 24.496094 68.605469 24.941406 69.035156 C 25.191406 69.289062 25.578125 69.75 25.976562 69.644531 C 26.035156 69.628906 26.066406 69.570312 26.078125 69.511719 C 26.078125 69.167969 25.726562 68.945312 25.488281 68.722656 Z M 22.617188 70.046875 C 21.953125 69.71875 21.214844 69.613281 20.5625 69.257812 C 19.882812 68.886719 19.304688 68.308594 18.847656 67.683594 C 18.371094 67.058594 18.019531 66.359375 17.691406 65.664062 C 17.394531 65.007812 17.175781 64.222656 16.6875 63.671875 C 16.523438 63.492188 16.257812 63.640625 16.242188 63.847656 C 16.199219 64.605469 16.613281 65.425781 16.910156 66.109375 C 17.25 66.910156 17.691406 67.683594 18.226562 68.367188 C 19.15625 69.554688 20.917969 70.996094 22.542969 70.582031 C 22.78125 70.519531 22.855469 70.164062 22.617188 70.046875 Z M 14.363281 68.960938 C 13.640625 68.484375 13.210938 67.609375 12.824219 66.851562 C 12.394531 66.046875 11.996094 65.246094 11.65625 64.382812 C 11.285156 63.433594 11.019531 62.46875 10.652344 61.515625 C 10.53125 61.21875 10.132812 61.339844 10.175781 61.648438 C 10.488281 63.714844 11.257812 65.589844 12.21875 67.429688 C 12.632812 68.203125 13.089844 68.886719 13.742188 69.480469 C 14.289062 69.984375 15.207031 70.359375 15.917969 70.582031 C 16.273438 70.699219 16.566406 70.195312 16.285156 69.957031 C 15.726562 69.511719 14.957031 69.363281 14.363281 68.960938 Z M 14.363281 68.960938 " fill-opacity="1" fill-rule="nonzero"/><path fill="#fff6f1" d="M 54.660156 51.976562 C 54.761719 52.855469 54.808594 55.261719 53.949219 56.167969 C 53.625 56.269531 53.3125 56.390625 52.988281 56.523438 C 52.972656 56.523438 52.972656 56.523438 52.957031 56.523438 C 52.898438 56.554688 52.855469 56.570312 52.796875 56.597656 C 52.070312 56.894531 51.347656 57.207031 50.636719 57.503906 C 49.792969 57.847656 48.933594 58.113281 48.0625 58.394531 C 47.898438 58.441406 47.042969 61.367188 46.878906 61.414062 C 46.789062 61.441406 45.207031 63.164062 45.148438 63.179688 C 44.644531 63.328125 41.226562 67.207031 36.996094 64.832031 C 36.953125 64.816406 36.847656 61.351562 36.773438 61.382812 C 34.894531 61.933594 36.167969 61.785156 34.214844 61.992188 C 33.785156 62.035156 33.359375 62.066406 32.929688 62.082031 C 32.914062 62.082031 32.898438 62.082031 32.898438 62.082031 C 32.855469 62.082031 32.796875 62.082031 32.707031 62.082031 C 32.457031 62.082031 32.1875 62.082031 31.9375 62.082031 C 30.726562 62.082031 29.511719 62.066406 28.296875 62.15625 C 26.640625 62.273438 25.015625 62.484375 23.359375 62.660156 C 21.007812 61.992188 18.59375 61.457031 16.183594 61.101562 C 16.214844 61.042969 16.257812 60.96875 16.300781 60.90625 C 15.84375 60.773438 15.371094 60.667969 14.910156 60.550781 C 14.039062 60.328125 13.238281 60.074219 12.441406 59.675781 C 10.738281 58.828125 8.800781 57.742188 8.019531 55.886719 C 7.367188 54.339844 7.605469 52.421875 8.0625 50.863281 C 8.433594 49.585938 8.964844 48.128906 10.03125 47.265625 C 10.03125 47.179688 10.03125 47.089844 10.015625 46.984375 C 9.96875 46.523438 9.894531 46.078125 9.824219 45.632812 C 9.71875 44.949219 9.660156 44.339844 9.808594 43.699219 C 9.675781 43.300781 9.554688 42.914062 9.511719 42.527344 C 9.421875 41.679688 9.453125 40.863281 9.554688 40.015625 C 9.628906 39.449219 9.601562 38.648438 9.851562 38.085938 C 9.808594 38.054688 9.761719 38.039062 9.71875 38.011719 C 9.527344 37.90625 9.617188 37.550781 9.835938 37.535156 C 11.066406 37.476562 12.308594 37.191406 13.492188 36.894531 C 14.601562 36.597656 15.726562 36.285156 16.878906 36.34375 C 16.953125 36.34375 17.042969 36.375 17.101562 36.421875 C 17.542969 36.300781 18.003906 36.269531 18.460938 36.210938 C 18.699219 36.183594 19.023438 36.109375 19.335938 36.109375 C 19.378906 34.296875 19.304688 32.347656 19.835938 30.625 C 19.808594 29.957031 19.792969 29.003906 20.324219 28.558594 C 20.414062 28.484375 20.578125 28.515625 20.621094 28.632812 C 20.859375 29.214844 20.738281 29.984375 20.828125 30.609375 C 20.945312 31.457031 21.125 32.289062 21.421875 33.089844 C 21.789062 34.101562 22.292969 35.246094 23.136719 35.929688 C 23.089844 35.574219 23.078125 35.203125 23.046875 34.875 C 22.988281 34.191406 22.945312 33.523438 22.929688 32.839844 C 22.898438 31.5 22.972656 30.148438 23.210938 28.84375 C 23.433594 27.636719 23.785156 26.507812 24.347656 25.410156 C 24.75 24.621094 25.191406 23.492188 25.933594 22.972656 C 26.066406 22.882812 26.285156 22.929688 26.300781 23.121094 C 26.300781 23.210938 26.300781 23.300781 26.285156 23.390625 C 26.316406 23.433594 26.347656 23.476562 26.332031 23.550781 C 26.199219 25.4375 25.84375 27.414062 26.847656 29.140625 C 27.292969 29.882812 27.8125 30.566406 28.210938 31.324219 C 28.578125 32.023438 28.949219 32.71875 29.421875 33.34375 C 29.480469 33.417969 29.542969 33.492188 29.601562 33.582031 C 30.902344 34.191406 32.234375 34.652344 33.683594 34.816406 C 34.601562 34.917969 35.53125 34.949219 36.449219 34.875 C 36.835938 34.84375 37.261719 34.753906 37.675781 34.710938 C 37.394531 34.371094 37.175781 33.96875 37.027344 33.539062 C 36.773438 32.78125 36.433594 31.917969 36.359375 31.117188 C 36.347656 30.9375 36.523438 30.757812 36.699219 30.847656 C 36.773438 30.878906 36.835938 30.921875 36.894531 30.953125 C 36.921875 30.964844 36.953125 30.980469 36.980469 30.996094 C 37.011719 31.027344 37.027344 31.042969 37.054688 31.070312 C 37.292969 31.277344 37.457031 31.53125 37.589844 31.828125 C 37.605469 31.84375 37.617188 31.875 37.632812 31.886719 C 37.871094 32.183594 38.136719 32.4375 38.433594 32.675781 C 39.097656 33.179688 39.851562 33.566406 40.636719 33.863281 C 41.40625 34.160156 42.1875 34.398438 42.988281 34.5625 C 43.550781 34.679688 44.320312 34.636719 44.835938 34.890625 C 45.105469 35.023438 45.265625 35.378906 45.191406 35.664062 C 45.886719 36.421875 46.480469 37.253906 47.292969 37.90625 C 48.121094 38.589844 49.007812 39.183594 49.894531 39.777344 C 51.714844 40.996094 53.210938 42.421875 53.773438 44.621094 C 54.097656 45.929688 54.128906 47.265625 54.1875 48.617188 C 54.261719 49.71875 54.511719 50.832031 54.660156 51.976562 Z M 67.46875 39.792969 C 67.367188 38.351562 66.714844 37.058594 65.519531 36.242188 C 64.113281 35.277344 62.441406 35.335938 60.902344 35.898438 C 60.28125 36.136719 58.742188 37.191406 58.046875 38.234375 C 57.871094 38.261719 57.722656 38.382812 57.691406 38.589844 C 57.589844 39.539062 57.617188 40.460938 57.675781 41.414062 C 57.738281 42.453125 57.707031 43.464844 57.648438 44.503906 C 57.542969 46.046875 57.261719 48.011719 58.238281 49.347656 C 58.964844 50.34375 60.355469 50.34375 61.433594 50.089844 C 62.824219 49.777344 64.128906 49.078125 65.175781 48.097656 C 66.285156 47.058594 66.953125 45.691406 67.1875 44.191406 C 67.394531 42.765625 67.574219 41.25 67.46875 39.792969 Z M 67.46875 39.792969 " fill-opacity="1" fill-rule="nonzero"/><path fill="#f9a5b4" d="M 48.742188 55.617188 C 46.066406 56.570312 42.988281 55.722656 42.234375 53.582031 C 41.492188 51.457031 43.078125 49.066406 46.035156 47.90625 C 48.683594 46.878906 51.878906 47.027344 52.988281 49.882812 C 54.140625 52.855469 51.421875 54.679688 48.742188 55.617188 Z M 13.078125 52.421875 C 10.828125 51.738281 8.253906 52.171875 7.632812 54.785156 C 7.617188 54.84375 7.605469 54.90625 7.589844 54.964844 C 7.914062 56.433594 8.816406 57.726562 9.867188 58.796875 C 10.429688 59.078125 11.050781 59.300781 11.65625 59.464844 C 13.921875 60.058594 16.347656 59.050781 16.730469 57.101562 C 17.128906 55.15625 15.605469 53.179688 13.078125 52.421875 Z M 13.078125 52.421875 " fill-opacity="1" fill-rule="nonzero"/><path fill="#f34d65" d="M 46.214844 52.109375 C 46.273438 52.332031 46.226562 52.644531 46.109375 52.855469 C 46.035156 53.003906 45.886719 53.089844 45.726562 53.015625 C 45.605469 52.972656 45.519531 52.839844 45.546875 52.707031 C 45.5625 52.585938 45.605469 52.496094 45.636719 52.378906 C 45.652344 52.289062 45.664062 52.199219 45.664062 52.109375 C 45.679688 51.960938 45.828125 51.84375 45.976562 51.875 C 46.109375 51.886719 46.183594 51.992188 46.214844 52.109375 Z M 47.117188 51.875 C 47.117188 51.992188 47.117188 52.097656 47.101562 52.199219 C 47.085938 52.332031 47.054688 52.46875 47.144531 52.585938 C 47.203125 52.660156 47.292969 52.675781 47.382812 52.644531 C 47.707031 52.542969 47.589844 52.050781 47.53125 51.8125 C 47.46875 51.546875 47.117188 51.605469 47.117188 51.875 Z M 49.347656 51.277344 C 49.273438 51.027344 48.859375 51.101562 48.847656 51.351562 C 48.832031 51.457031 48.816406 51.574219 48.785156 51.679688 C 48.742188 51.84375 48.683594 52.035156 48.800781 52.171875 C 48.859375 52.230469 48.933594 52.273438 49.023438 52.257812 C 49.230469 52.214844 49.320312 52.023438 49.363281 51.828125 C 49.410156 51.636719 49.410156 51.472656 49.347656 51.277344 Z M 13.875 56.316406 C 13.859375 56.242188 13.832031 56.167969 13.816406 56.09375 C 13.785156 55.960938 13.652344 55.871094 13.535156 55.898438 C 13.433594 55.929688 13.371094 56.019531 13.359375 56.136719 C 13.328125 56.347656 13.402344 56.613281 13.519531 56.792969 C 13.59375 56.910156 13.726562 56.96875 13.859375 56.894531 C 13.949219 56.835938 14.007812 56.71875 13.980469 56.597656 C 13.949219 56.496094 13.90625 56.421875 13.875 56.316406 Z M 12.605469 56.003906 C 12.589844 55.765625 12.277344 55.75 12.261719 55.988281 C 12.234375 56.195312 12.1875 56.644531 12.46875 56.71875 C 12.542969 56.730469 12.617188 56.71875 12.648438 56.644531 C 12.707031 56.539062 12.675781 56.421875 12.648438 56.300781 C 12.617188 56.195312 12.617188 56.109375 12.605469 56.003906 Z M 11.152344 55.691406 C 11.109375 55.46875 10.769531 55.4375 10.738281 55.675781 C 10.710938 55.855469 10.726562 55.988281 10.785156 56.167969 C 10.84375 56.332031 10.933594 56.496094 11.09375 56.507812 C 11.167969 56.523438 11.226562 56.464844 11.257812 56.421875 C 11.347656 56.285156 11.273438 56.121094 11.226562 55.988281 C 11.199219 55.886719 11.167969 55.796875 11.152344 55.691406 Z M 11.152344 55.691406 " fill-opacity="1" fill-rule="nonzero"/><path fill="#f2f5fe" d="M 44.289062 49.613281 C 44.039062 49.539062 43.785156 49.613281 43.683594 49.867188 C 43.578125 50.105469 43.714844 50.371094 43.933594 50.476562 C 43.949219 50.476562 43.949219 50.492188 43.964844 50.492188 C 43.964844 50.492188 43.964844 50.507812 43.980469 50.507812 C 43.980469 50.519531 44.082031 50.699219 44.082031 50.699219 C 44.128906 50.757812 44.140625 50.789062 44.203125 50.832031 C 44.214844 50.832031 44.320312 50.890625 44.378906 50.90625 C 44.480469 50.9375 44.570312 50.921875 44.660156 50.878906 C 44.675781 50.863281 44.6875 50.863281 44.703125 50.847656 C 44.867188 50.742188 44.941406 50.582031 44.925781 50.386719 C 44.925781 50.046875 44.617188 49.703125 44.289062 49.613281 Z M 43.992188 50.535156 Z M 44.335938 50.90625 C 44.347656 50.90625 44.363281 50.90625 44.363281 50.921875 C 44.421875 50.9375 44.421875 50.953125 44.335938 50.90625 Z M 10.105469 54.25 C 10.117188 54.25 10.117188 54.25 10.132812 54.234375 C 10.058594 54.28125 10.074219 54.265625 10.105469 54.25 Z M 10.03125 53.089844 C 9.777344 53.195312 9.554688 53.539062 9.585938 53.835938 C 9.601562 54.011719 9.675781 54.148438 9.824219 54.222656 C 9.835938 54.222656 9.851562 54.234375 9.867188 54.234375 C 9.941406 54.265625 10.015625 54.265625 10.105469 54.234375 C 10.148438 54.207031 10.238281 54.160156 10.238281 54.148438 C 10.28125 54.101562 10.296875 54.074219 10.324219 54.011719 C 10.324219 54.027344 10.382812 53.847656 10.382812 53.835938 C 10.382812 53.835938 10.382812 53.820312 10.382812 53.820312 C 10.382812 53.820312 10.398438 53.804688 10.398438 53.804688 C 10.578125 53.6875 10.652344 53.449219 10.546875 53.238281 C 10.445312 53.046875 10.222656 53.003906 10.03125 53.089844 Z M 10.382812 53.847656 C 10.355469 53.878906 10.355469 53.878906 10.382812 53.847656 Z M 10.382812 53.847656 " fill-opacity="1" fill-rule="nonzero"/><path fill="#fdb8a9" d="M 22.972656 35.378906 C 22.914062 34.503906 22.898438 33.65625 23.03125 32.792969 C 22.988281 32.75 22.972656 32.707031 22.957031 32.632812 C 22.8125 31.949219 23.121094 31.128906 23.238281 30.445312 C 23.386719 29.613281 23.519531 28.78125 23.699219 27.964844 C 23.980469 26.6875 24.335938 25.304688 25.191406 24.296875 C 25.339844 23.996094 25.503906 23.714844 25.738281 23.523438 C 26.066406 23.238281 26.492188 23.550781 26.492188 23.9375 C 26.480469 24.445312 26.199219 24.890625 26.035156 25.363281 C 25.886719 25.8125 25.753906 26.257812 25.636719 26.703125 C 25.5625 26.96875 25.503906 27.238281 25.429688 27.488281 C 25.546875 28.515625 25.726562 29.585938 26.007812 30.566406 C 26.332031 31.710938 26.789062 33.003906 27.8125 33.699219 C 28.625 34.265625 29.617188 34.5625 30.589844 34.679688 C 31.464844 34.785156 32.382812 34.605469 33.238281 34.769531 C 33.34375 34.785156 33.371094 34.917969 33.269531 34.980469 C 32.457031 35.410156 31.226562 35.261719 30.371094 35.113281 C 29.394531 34.949219 28.359375 34.667969 27.558594 34.042969 C 25.769531 32.660156 25.445312 30.164062 25.3125 27.964844 C 25.164062 28.515625 25.015625 29.078125 24.851562 29.628906 C 24.6875 30.148438 24.527344 30.683594 24.363281 31.203125 C 24.273438 31.710938 24.214844 32.214844 24.1875 32.71875 C 24.140625 33.34375 24.1875 33.984375 24.230469 34.605469 C 24.273438 35.039062 24.363281 35.453125 24.320312 35.886719 C 24.289062 36.152344 23.933594 36.183594 23.816406 35.960938 C 23.578125 35.527344 23.507812 34.980469 23.507812 34.429688 C 23.433594 34.742188 23.371094 35.054688 23.3125 35.363281 C 23.253906 35.542969 22.988281 35.574219 22.972656 35.378906 Z M 16.390625 37.785156 C 17.308594 38.097656 18.578125 37.59375 19.421875 37.386719 C 19.675781 37.328125 19.808594 37.117188 19.835938 36.910156 C 19.894531 36.910156 19.941406 36.910156 20 36.878906 C 20.148438 36.820312 20.191406 36.671875 20.191406 36.523438 C 20.175781 36.019531 20.089844 35.527344 19.925781 35.054688 C 19.925781 35.039062 19.910156 35.039062 19.910156 35.039062 C 19.941406 34.636719 19.96875 34.25 20.042969 33.847656 C 20.175781 33.089844 20.414062 32.347656 20.664062 31.621094 C 20.785156 31.265625 22.070312 28.292969 20.976562 28.484375 C 20.382812 28.589844 20.3125 29.300781 20.148438 29.777344 C 19.910156 30.476562 19.675781 31.175781 19.46875 31.875 C 19.113281 33.121094 18.667969 34.800781 19.320312 36.035156 C 19.363281 36.121094 19.4375 36.167969 19.511719 36.183594 C 19.511719 36.257812 19.511719 36.316406 19.511719 36.390625 C 19.46875 36.375 19.4375 36.359375 19.394531 36.359375 C 18.640625 36.285156 17.871094 36.34375 17.117188 36.359375 C 16.996094 36.359375 16.910156 36.390625 16.820312 36.449219 C 16.804688 36.449219 16.789062 36.449219 16.773438 36.433594 C 16.6875 36.34375 16.554688 36.285156 16.40625 36.332031 C 15.679688 36.507812 14.984375 36.65625 14.246094 36.777344 C 13.578125 36.878906 12.855469 36.953125 12.292969 37.355469 C 11.421875 37.402344 10.503906 37.460938 9.792969 37.890625 C 9.601562 38.011719 9.527344 38.382812 9.808594 38.457031 C 10.960938 38.753906 12.324219 38.53125 13.507812 38.425781 C 14.304688 38.320312 15.53125 38.21875 16.390625 37.785156 Z M 64.140625 40.433594 C 63.832031 39.851562 63.152344 39.761719 62.617188 40.074219 C 62.367188 40.222656 62.367188 40.492188 62.515625 40.640625 C 62.515625 40.667969 62.5 40.683594 62.5 40.714844 C 61.847656 40.921875 61.226562 41.636719 60.960938 42.082031 C 60.414062 43.015625 60.074219 44.28125 60.472656 45.335938 C 60.578125 45.585938 60.859375 45.722656 61.125 45.691406 C 62.75 45.511719 63.800781 43.773438 64.203125 42.332031 C 64.347656 41.710938 64.453125 41.011719 64.140625 40.433594 Z M 58.269531 39.480469 C 58.164062 39.289062 57.898438 39.332031 57.871094 39.539062 C 57.648438 40.953125 58.089844 42.480469 58.285156 43.894531 C 58.105469 44.726562 58.019531 45.585938 57.929688 46.433594 C 57.871094 47.042969 57.675781 47.964844 57.914062 48.574219 C 57.871094 48.722656 57.839844 48.855469 57.8125 49.003906 C 57.707031 49.554688 58.460938 49.792969 58.773438 49.390625 C 59.75 48.128906 59.628906 46.003906 59.480469 44.519531 C 59.394531 43.625 59.214844 42.75 59.007812 41.886719 C 58.816406 41.070312 58.652344 40.222656 58.269531 39.480469 Z M 54.660156 49.511719 C 54.71875 48.308594 54.261719 46.925781 53.757812 45.886719 C 53.226562 44.800781 52.351562 43.953125 51.433594 43.195312 C 50.796875 42.675781 50.117188 42.214844 49.46875 41.710938 C 48.683594 41.101562 47.988281 40.402344 47.308594 39.675781 C 46.066406 38.320312 45.015625 36.835938 43.859375 35.410156 C 44.230469 35.378906 44.601562 35.335938 44.96875 35.261719 C 45.3125 35.203125 45.222656 34.679688 44.894531 34.742188 C 42.542969 35.128906 40 34.679688 38.179688 33.121094 C 38.136719 32.808594 38.0625 32.511719 38.019531 32.214844 C 37.914062 31.574219 37.882812 30.417969 37.160156 30.179688 C 36.996094 30.132812 36.804688 30.164062 36.703125 30.3125 C 36.332031 30.890625 36.761719 31.753906 36.878906 32.394531 C 37.011719 33.195312 37.011719 34.132812 37.515625 34.800781 C 37.738281 35.097656 38.136719 34.90625 38.195312 34.605469 C 38.253906 34.324219 38.269531 34.027344 38.238281 33.730469 C 39.675781 34.992188 41.671875 35.511719 43.609375 35.4375 C 45.472656 38.351562 47.664062 40.921875 50.414062 43.003906 C 51.480469 43.804688 52.425781 44.695312 53.105469 45.871094 C 53.445312 46.449219 53.683594 47.089844 53.859375 47.710938 C 53.964844 48.085938 54.039062 48.457031 54.113281 48.84375 C 54.097656 48.855469 54.097656 48.871094 54.097656 48.902344 C 53.949219 50.148438 53.980469 51.292969 53.460938 52.46875 C 53.238281 52.972656 52.929688 53.449219 52.574219 53.878906 C 52.292969 54.085938 52.011719 54.296875 51.714844 54.472656 C 50.589844 55.15625 49.394531 55.707031 48.179688 56.226562 C 45.636719 57.3125 43.003906 58.292969 40.371094 59.125 C 38.964844 59.570312 37.542969 59.925781 36.09375 60.222656 C 35.28125 60.359375 34.46875 60.519531 33.652344 60.683594 C 32.722656 60.847656 31.773438 60.980469 30.84375 61.117188 C 30.074219 61.21875 29.289062 61.324219 28.519531 61.441406 C 27.46875 61.546875 26.40625 61.621094 25.339844 61.679688 C 23.226562 61.800781 21.140625 61.753906 19.054688 61.441406 C 18.285156 61.324219 17.542969 61.175781 16.789062 61.011719 C 16.300781 60.90625 15.695312 60.773438 15.207031 60.96875 C 15.191406 60.96875 15.191406 60.980469 15.175781 60.980469 C 17.929688 61.351562 20.679688 61.933594 23.359375 62.691406 C 25 62.511719 26.640625 62.304688 28.296875 62.183594 C 29.511719 62.097656 30.726562 62.109375 31.9375 62.109375 C 32.1875 62.109375 32.457031 62.109375 32.707031 62.109375 C 32.796875 62.109375 32.855469 62.109375 32.898438 62.109375 C 32.914062 62.109375 32.929688 62.109375 32.929688 62.109375 C 33.359375 62.097656 33.785156 62.066406 34.214844 62.023438 C 34.925781 61.949219 35.621094 61.84375 36.316406 61.710938 C 35.488281 61.769531 40.429688 63.863281 46.214844 61.902344 C 47.277344 61.710938 48.003906 58.5 48.164062 58.457031 C 49.039062 58.1875 49.792969 57.890625 50.636719 57.550781 C 51.640625 57.132812 52.648438 56.671875 53.683594 56.316406 C 53.699219 56.285156 53.714844 56.269531 53.726562 56.242188 L 53.742188 56.195312 C 54.792969 55.5 55.5625 54.5625 54.777344 53.300781 C 54.824219 53.210938 54.851562 53.121094 54.882812 53.03125 C 54.957031 52.792969 54.75 52.585938 54.511719 52.675781 C 54.4375 52.707031 54.363281 52.734375 54.289062 52.78125 C 54.71875 51.710938 54.894531 50.609375 54.660156 49.511719 Z M 27.25 52.421875 C 26.921875 52.347656 26.539062 52.378906 26.226562 52.527344 C 25.976562 52.46875 25.664062 52.765625 25.796875 53.046875 C 26.125 53.761719 26.96875 53.6875 27.457031 53.195312 C 27.765625 52.914062 27.664062 52.527344 27.25 52.421875 Z M 27.25 52.421875 " fill-opacity="1" fill-rule="nonzero"/><path fill="#f9a5b4" d="M 51.40625 61.992188 C 50.886719 63.210938 50.382812 64.503906 49.675781 65.617188 C 48.476562 67.460938 45.738281 69.570312 43.433594 68.457031 C 42.707031 68.097656 41.554688 67.027344 41.566406 66.136719 C 41.566406 65.039062 42.945312 64.695312 43.683594 64.207031 C 45.546875 62.957031 47.648438 61.5 48.3125 59.257812 C 48.195312 59.019531 48.238281 58.707031 48.535156 58.617188 C 48.59375 58.574219 48.683594 58.558594 48.773438 58.574219 C 49.734375 58.367188 50.5625 57.773438 51.492188 57.445312 C 51.820312 57.328125 52.085938 57.625 52.117188 57.921875 C 52.21875 59.347656 51.96875 60.683594 51.40625 61.992188 Z M 39.941406 65.542969 C 39.082031 65.824219 37.929688 65.78125 37.203125 65.203125 C 36.449219 64.59375 36.703125 63.328125 36.789062 62.394531 C 37.070312 62.140625 36.835938 61.53125 36.347656 61.605469 C 35.503906 61.738281 34.6875 62.007812 33.832031 62.035156 C 33.625 62.035156 33.445312 62.171875 33.386719 62.378906 C 32.824219 64.234375 30.796875 67.117188 33.019531 68.679688 C 35.695312 70.566406 38.785156 68.425781 40.445312 66.210938 C 40.679688 65.886719 40.28125 65.4375 39.941406 65.542969 Z M 39.941406 65.542969 " fill-opacity="1" fill-rule="nonzero"/><path fill="#ed808a" d="M 51.996094 60.804688 C 51.96875 60.980469 51.761719 61.101562 51.597656 61.101562 C 51.285156 61.859375 50.871094 62.601562 50.546875 63.34375 C 50.105469 64.414062 49.660156 65.511719 49.023438 66.496094 C 48.492188 67.339844 47.8125 68.171875 46.863281 68.542969 C 46.035156 68.871094 44.601562 68.871094 44.007812 68.085938 C 43.269531 67.980469 42.542969 67.726562 41.980469 67.3125 C 41.820312 67.191406 41.863281 66.894531 42.085938 66.910156 C 43.460938 66.96875 44.761719 67.5625 46.152344 67.132812 C 47.054688 66.851562 47.617188 66.285156 48.179688 65.558594 C 48.476562 65.1875 48.859375 64.695312 49.214844 64.132812 C 49.4375 63.625 49.660156 63.121094 49.882812 62.617188 C 49.894531 62.511719 49.894531 62.394531 49.894531 62.289062 C 49.882812 62.007812 49.851562 61.605469 49.628906 61.398438 C 49.601562 61.367188 49.570312 61.339844 49.542969 61.308594 C 48.714844 61.398438 47.871094 61.441406 47.101562 61.21875 C 46.878906 61.160156 46.863281 60.816406 47.101562 60.757812 C 47.160156 60.742188 47.234375 60.730469 47.292969 60.714844 C 47.277344 60.625 47.292969 60.535156 47.351562 60.433594 C 47.75 59.703125 48.226562 59.078125 48.980469 58.679688 C 49.75 58.261719 50.5625 57.921875 51.375 57.5625 C 51.671875 57.429688 52.042969 57.578125 52.042969 57.949219 C 52.042969 58.929688 52.128906 59.867188 51.996094 60.804688 Z M 32.632812 63.835938 C 33.328125 64.339844 34.554688 63.996094 35.296875 63.761719 C 36.019531 63.539062 37.011719 63.046875 36.820312 62.125 C 36.773438 61.949219 36.539062 61.800781 36.359375 61.875 C 35.175781 62.332031 32.988281 61.8125 32.542969 63.417969 C 32.53125 63.476562 32.53125 63.539062 32.542969 63.597656 C 32.53125 63.6875 32.558594 63.789062 32.632812 63.835938 Z M 39.910156 65.664062 C 39.410156 66.019531 39.023438 66.507812 38.578125 66.925781 C 38.078125 67.402344 37.46875 67.757812 36.835938 67.996094 C 35.429688 68.53125 33.832031 68.589844 32.410156 68.085938 C 32.203125 68.011719 32.101562 68.277344 32.21875 68.410156 C 33.296875 69.6875 35.519531 69.421875 36.921875 68.945312 C 38.269531 68.484375 39.867188 67.355469 40.339844 65.960938 C 40.414062 65.765625 40.117188 65.527344 39.910156 65.664062 Z M 39.910156 65.664062 " fill-opacity="1" fill-rule="nonzero"/><path fill="#ffffff" d="M 35.8125 51.070312 C 33.328125 51.160156 31.226562 49.40625 30.859375 46.910156 C 30.53125 44.667969 31.640625 42.273438 35.015625 42.066406 C 38.507812 41.859375 39.660156 44.339844 39.882812 46.582031 C 40.117188 48.828125 38.3125 50.980469 35.8125 51.070312 Z M 25.976562 47.636719 C 25.738281 45.394531 24.570312 42.914062 21.035156 43.121094 C 17.617188 43.328125 16.492188 45.722656 16.835938 47.964844 C 17.203125 50.476562 19.320312 52.214844 21.847656 52.140625 C 24.378906 52.035156 26.199219 49.882812 25.976562 47.636719 Z M 37.675781 53.847656 C 36.492188 54.785156 34.96875 55.128906 33.625 55.765625 C 32.101562 56.496094 30.53125 57.132812 28.90625 57.5625 C 28.847656 57.578125 28.816406 57.59375 28.773438 57.625 C 28.566406 57.625 28.371094 57.625 28.164062 57.625 C 27.542969 57.5625 26.910156 57.519531 26.285156 57.488281 C 26.273438 57.488281 26.257812 57.488281 26.242188 57.488281 C 26.226562 57.488281 26.226562 57.488281 26.214844 57.488281 C 25.992188 57.488281 25.886719 57.667969 25.902344 57.847656 C 25.886719 58.023438 25.992188 58.203125 26.214844 58.203125 C 26.820312 58.203125 27.441406 58.246094 28.0625 58.261719 C 30.222656 58.425781 32.335938 58.605469 34.453125 57.785156 C 35.324219 57.445312 35.992188 56.878906 36.65625 56.242188 C 37.25 55.664062 37.929688 54.980469 38.210938 54.175781 C 38.328125 53.820312 37.898438 53.671875 37.675781 53.847656 Z M 37.675781 53.847656 " fill-opacity="1" fill-rule="nonzero"/><g clip-path="url(#195b580d96)"><path fill="#851919" d="M 60.117188 45.664062 C 59.554688 43.492188 61.09375 39.734375 63.476562 39.300781 C 63.683594 39.273438 63.890625 39.527344 63.699219 39.6875 C 63.226562 40.105469 62.664062 40.386719 62.21875 40.847656 C 61.996094 41.085938 61.789062 41.351562 61.613281 41.621094 C 62.292969 41.902344 62.53125 42.941406 62.5 43.597656 C 62.484375 44.042969 61.789062 44.042969 61.820312 43.597656 C 61.835938 43.285156 61.820312 42.941406 61.671875 42.675781 C 61.566406 42.480469 61.421875 42.347656 61.285156 42.214844 C 61.273438 42.230469 61.273438 42.257812 61.257812 42.273438 C 60.769531 43.402344 60.84375 44.472656 60.679688 45.648438 C 60.652344 45.972656 60.191406 45.945312 60.117188 45.664062 Z M 16.9375 41.53125 C 17.574219 41.398438 18.136719 41.085938 18.726562 40.847656 C 19.320312 40.625 20.265625 40.625 20.578125 40.015625 C 20.679688 39.824219 20.605469 39.628906 20.445312 39.511719 C 19.894531 39.09375 19.054688 39.570312 18.507812 39.808594 C 17.8125 40.105469 17.144531 40.460938 16.65625 41.042969 C 16.464844 41.265625 16.640625 41.589844 16.9375 41.53125 Z M 73.269531 50.996094 C 73.34375 52.066406 73.34375 53.121094 73.164062 54.175781 C 72.675781 57.253906 70.726562 59.628906 68.152344 61.25 C 66.820312 64.371094 63.519531 66.285156 60.324219 67.074219 C 60 67.164062 59.75 66.644531 60.089844 66.507812 C 60.175781 66.480469 60.25 66.433594 60.339844 66.40625 C 60.074219 66.433594 59.792969 66.167969 59.984375 65.898438 C 60.992188 64.519531 61.539062 63.136719 61.640625 61.398438 C 61.671875 60.878906 61.65625 60.359375 61.640625 59.851562 C 61.597656 60.132812 61.554688 60.433594 61.480469 60.714844 C 61.214844 61.949219 60.84375 63.507812 60.058594 64.546875 C 59.453125 66.003906 57.898438 67.253906 56.507812 67.757812 C 56.257812 67.847656 56.019531 67.578125 56.09375 67.339844 C 56.421875 66.242188 56.746094 65.113281 56.847656 63.953125 C 56.703125 64.414062 56.507812 64.84375 56.332031 65.230469 C 56.019531 65.871094 55.636719 66.539062 55.105469 67.027344 C 54.851562 67.265625 54.453125 67.625 54.082031 67.683594 C 54.054688 67.726562 54.007812 67.757812 53.933594 67.773438 C 52.617188 67.980469 51.273438 68.292969 49.925781 68.292969 C 49.6875 68.292969 49.46875 67.996094 49.628906 67.773438 C 50.148438 67.074219 50.175781 66.433594 50.222656 65.675781 C 49.628906 66.628906 48.949219 67.519531 48.136719 68.203125 C 46.804688 69.316406 45.3125 69.347656 43.726562 68.738281 C 42.648438 68.320312 41.421875 67.429688 41.140625 66.242188 C 40.191406 67.652344 38.847656 68.871094 37.234375 69.421875 C 35.992188 69.851562 34.410156 69.941406 33.179688 69.347656 C 33.136719 69.453125 33.0625 69.554688 32.957031 69.570312 C 31.703125 69.761719 29.96875 70.34375 28.699219 69.851562 C 28.652344 69.910156 28.578125 69.941406 28.492188 69.925781 C 27.957031 69.824219 27.542969 69.273438 27.175781 68.902344 C 26.773438 68.515625 26.359375 68.097656 26.007812 67.667969 C 25.53125 67.089844 25.164062 66.507812 24.882812 65.871094 C 24.925781 66.300781 25.03125 66.71875 25.191406 67.117188 C 25.621094 68.234375 26.316406 69.214844 26.894531 70.253906 C 26.894531 70.269531 26.910156 70.285156 26.910156 70.285156 C 26.910156 70.296875 26.921875 70.296875 26.921875 70.3125 C 26.996094 70.476562 26.878906 70.640625 26.703125 70.609375 C 26.035156 70.460938 25.382812 69.761719 24.894531 69.300781 C 24.527344 68.960938 24.171875 68.621094 23.847656 68.246094 C 24.128906 68.902344 24.542969 69.4375 24.882812 70.058594 C 24.957031 70.195312 24.851562 70.371094 24.71875 70.371094 C 24.703125 70.402344 24.675781 70.417969 24.644531 70.445312 C 24.15625 70.714844 23.507812 70.683594 22.972656 70.730469 C 22.382812 70.773438 21.773438 70.804688 21.183594 70.730469 C 20.105469 70.59375 19.1875 70.195312 18.386719 69.453125 C 17.617188 68.738281 17.027344 67.890625 16.640625 66.96875 C 16.640625 67.164062 16.65625 67.355469 16.671875 67.550781 C 16.761719 68.558594 17.011719 69.453125 17.394531 70.386719 C 17.410156 70.386719 17.410156 70.402344 17.425781 70.402344 C 17.664062 70.519531 17.558594 70.816406 17.367188 70.890625 C 16.703125 71.160156 15.488281 70.878906 14.824219 70.65625 C 14.039062 70.386719 13.328125 69.925781 12.8125 69.273438 C 12.085938 68.351562 11.507812 67.253906 11.050781 66.09375 C 11.332031 67.609375 11.789062 69.066406 12.648438 70.34375 C 12.722656 70.445312 12.722656 70.550781 12.675781 70.640625 C 12.8125 70.890625 12.515625 71.25 12.1875 71.101562 C 11.078125 70.566406 10.03125 69.941406 9.066406 69.183594 C 7.929688 68.292969 6.9375 67.28125 6.078125 66.195312 C 1.628906 64.519531 0.265625 59.214844 0.164062 54.890625 C 0 50.34375 0.828125 45.839844 1.9375 41.488281 C 1.96875 41.308594 1.996094 41.128906 2.027344 40.953125 C 2.988281 35.304688 4.675781 29.777344 6.953125 24.519531 C 8.949219 19.898438 11.375 15.378906 14.542969 11.457031 C 15.652344 10.074219 16.847656 8.8125 18.238281 7.773438 C 18.195312 7.785156 18.164062 7.816406 18.121094 7.832031 C 18.0625 7.859375 18.019531 7.785156 18.078125 7.742188 C 19.601562 6.730469 21.183594 5.871094 22.855469 5.113281 C 27.871094 2.839844 33.875 1.128906 39.335938 2.855469 C 40.710938 3.285156 42.101562 3.9375 43.152344 4.964844 C 43.535156 5.335938 44.066406 5.914062 44.097656 6.496094 C 47.542969 4.902344 51.703125 5.796875 54.984375 7.402344 C 56.894531 8.335938 58.714844 9.523438 60.265625 10.980469 C 61.359375 12.007812 62.605469 13.328125 63.328125 14.710938 C 64.511719 16.078125 65.503906 17.59375 66.214844 19.289062 C 67.117188 21.414062 67.839844 23.640625 68.460938 25.886719 C 68.535156 25.855469 68.640625 25.898438 68.640625 26.003906 C 68.667969 26.285156 68.683594 26.570312 68.714844 26.867188 C 69.128906 28.425781 69.480469 29.984375 69.824219 31.53125 C 69.984375 32.273438 70.132812 33.003906 70.296875 33.746094 C 70.679688 34.753906 71.140625 35.738281 71.671875 36.65625 C 72.261719 37.699219 72.929688 38.691406 73.402344 39.792969 C 75 43.550781 74.617188 47.328125 73.269531 50.996094 Z M 70.695312 35.765625 C 71.285156 38.886719 71.804688 42.023438 72.351562 45.15625 C 72.632812 46.746094 72.972656 48.367188 73.164062 50.015625 C 73.640625 48.394531 73.992188 46.71875 73.992188 45.039062 C 73.980469 42.808594 73.386719 40.667969 72.308594 38.738281 C 71.761719 37.726562 71.214844 36.761719 70.695312 35.765625 Z M 44.140625 6.644531 C 44.15625 6.65625 44.171875 6.671875 44.1875 6.6875 C 49.511719 6.730469 54.867188 7.964844 59.261719 11.085938 C 60.238281 11.785156 61.167969 12.554688 62.042969 13.390625 C 61.96875 13.300781 61.894531 13.210938 61.820312 13.121094 C 61.199219 12.40625 60.519531 11.785156 59.792969 11.175781 C 58.3125 9.898438 56.703125 8.753906 54.941406 7.890625 C 51.613281 6.242188 47.738281 5.304688 44.140625 6.644531 Z M 24.230469 4.917969 C 25.621094 4.503906 27.054688 4.191406 28.507812 3.996094 C 31.507812 3.582031 34.570312 3.539062 37.574219 4.042969 C 39.675781 4.398438 41.847656 4.992188 43.625 6.242188 C 43.371094 5.660156 42.664062 5.097656 42.292969 4.828125 C 40.917969 3.804688 39.261719 3.210938 37.589844 2.914062 C 32.988281 2.050781 28.476562 3.164062 24.230469 4.917969 Z M 5.488281 65.410156 C 1.316406 59.527344 0.769531 51.457031 1.566406 44.234375 C 0.902344 47.5625 0.429688 50.953125 0.488281 54.339844 C 0.53125 56.730469 0.8125 59.226562 1.835938 61.425781 C 2.664062 63.195312 3.890625 64.472656 5.488281 65.410156 Z M 40.445312 65.945312 C 39.363281 66.09375 38.226562 66.003906 37.335938 65.378906 C 36.226562 64.59375 36.273438 63.210938 36.464844 61.992188 C 35.472656 62.15625 34.46875 62.304688 33.460938 62.4375 C 33.164062 63.390625 32.605469 64.234375 32.382812 65.214844 C 32.160156 66.183594 31.996094 67.535156 32.8125 68.277344 C 33.980469 69.316406 35.992188 69.226562 37.324219 68.605469 C 38.609375 68.011719 39.660156 67.105469 40.445312 65.945312 Z M 35.03125 61.339844 C 38.460938 60.804688 41.894531 60.121094 45.238281 59.167969 C 48.371094 58.277344 51.300781 57.074219 54.203125 55.601562 C 54.410156 54.695312 54.570312 53.789062 54.617188 52.867188 C 54.617188 52.734375 54.628906 52.601562 54.628906 52.46875 C 54.480469 50.566406 54.082031 48.769531 53.046875 47.074219 C 51.878906 45.15625 50.265625 43.746094 48.726562 42.15625 C 47.277344 40.65625 45.84375 39.125 44.6875 37.371094 C 44.140625 36.523438 43.683594 35.648438 43.3125 34.726562 C 41.773438 34.371094 40.132812 34.070312 38.832031 33.152344 C 37.914062 32.496094 37.175781 31.546875 36.628906 30.507812 C 36.640625 30.863281 36.640625 31.21875 36.6875 31.5625 C 36.804688 32.632812 37.128906 33.582031 37.824219 34.414062 C 37.871094 34.472656 37.898438 34.53125 37.898438 34.59375 C 37.945312 34.753906 37.882812 34.933594 37.691406 34.980469 C 37.648438 35.007812 37.589844 35.007812 37.53125 35.007812 C 36.863281 35.128906 36.183594 35.203125 35.519531 35.214844 C 32.574219 36.0625 29.140625 34.800781 27.21875 32.46875 C 25.089844 29.898438 24.527344 26.316406 25.902344 23.300781 C 25.605469 23.714844 25.324219 24.148438 25.089844 24.621094 C 24.480469 25.8125 24.007812 27.101562 23.714844 28.394531 C 23.417969 29.703125 23.238281 31.027344 23.253906 32.378906 C 23.269531 33.523438 23.507812 34.59375 23.652344 35.722656 C 23.699219 36.046875 23.328125 36.09375 23.136719 35.945312 C 22.988281 36.035156 22.78125 36.019531 22.675781 35.824219 C 21.433594 33.671875 20.457031 31.027344 20.488281 28.457031 C 20.207031 29.421875 19.925781 30.402344 19.761719 31.398438 C 19.496094 32.941406 19.453125 34.503906 19.542969 36.078125 C 19.554688 36.316406 19.363281 36.421875 19.171875 36.40625 C 18.964844 36.644531 18.476562 36.597656 18.179688 36.644531 C 17.796875 36.6875 17.425781 36.777344 17.054688 36.820312 C 16.96875 36.835938 16.910156 36.792969 16.863281 36.730469 C 16.746094 36.71875 16.640625 36.644531 16.613281 36.496094 C 16.613281 36.480469 16.613281 36.480469 16.613281 36.464844 C 15.886719 36.65625 15.074219 36.65625 14.320312 36.777344 C 13.625 36.894531 12.945312 37.027344 12.25 37.179688 C 11.566406 37.328125 10.886719 37.503906 10.222656 37.667969 C 10.148438 37.683594 10.074219 37.699219 10 37.726562 C 9.851562 38.457031 9.644531 39.167969 9.570312 39.910156 C 9.496094 40.699219 9.480469 41.488281 9.527344 42.273438 C 9.617188 43.878906 10.058594 45.46875 10.089844 47.058594 C 10.089844 47.238281 9.96875 47.355469 9.824219 47.386719 C 8.121094 49.761719 6.96875 53.820312 8.667969 56.480469 C 10.324219 59.078125 13.832031 60.386719 16.671875 61.101562 C 22.738281 62.632812 28.949219 62.273438 35.03125 61.339844 Z M 26.078125 24.011719 C 25.164062 26.851562 25.546875 29.972656 27.648438 32.289062 C 28.699219 33.449219 30.042969 34.339844 31.566406 34.710938 C 31.96875 34.816406 32.367188 34.875 32.75 34.890625 C 31.257812 34.519531 29.867188 33.789062 28.773438 32.554688 C 27.53125 31.175781 26.703125 29.390625 26.332031 27.578125 C 26.09375 26.496094 25.960938 25.230469 26.078125 24.011719 Z M 44.214844 34.933594 C 44.039062 34.890625 43.847656 34.84375 43.667969 34.800781 C 44.15625 35.886719 44.75 36.910156 45.472656 37.859375 C 46.804688 39.644531 48.433594 41.234375 50.042969 42.765625 C 51.730469 44.355469 53.285156 46.195312 54.203125 48.277344 C 54.054688 47.625 53.890625 46.96875 53.699219 46.332031 C 53.433594 45.453125 53.121094 44.578125 52.796875 43.714844 C 52.648438 43.746094 52.484375 43.671875 52.425781 43.476562 C 51.789062 41.339844 49.6875 40.195312 48.019531 38.929688 C 46.539062 37.816406 45.339844 36.496094 44.394531 34.949219 C 44.335938 34.949219 44.273438 34.949219 44.214844 34.933594 Z M 42.21875 64.710938 C 44.527344 63.566406 46.507812 61.753906 47.542969 59.375 C 46.449219 59.734375 45.355469 60.058594 44.230469 60.34375 C 41.878906 60.96875 39.496094 61.472656 37.101562 61.886719 C 37.070312 63.226562 36.703125 64.753906 38.433594 65.203125 C 39.6875 65.511719 41.066406 65.277344 42.21875 64.710938 Z M 51.078125 62.320312 C 51.375 61.546875 51.628906 60.742188 51.746094 59.925781 C 51.847656 59.199219 51.773438 58.484375 51.773438 57.773438 C 51.183594 58.039062 50.589844 58.277344 50 58.5 C 49.480469 58.695312 48.964844 58.886719 48.445312 59.066406 C 47.382812 61.960938 44.792969 64.652344 41.835938 65.617188 C 41.910156 67.074219 43.550781 67.90625 44.792969 68.203125 C 46.332031 68.558594 47.394531 67.9375 48.371094 66.777344 C 49.480469 65.46875 50.457031 63.921875 51.078125 62.320312 Z M 60.503906 66.332031 C 60.664062 66.257812 60.828125 66.195312 60.976562 66.121094 C 61.066406 65.871094 61.167969 65.601562 61.285156 65.363281 C 61.078125 65.722656 60.828125 66.035156 60.519531 66.332031 C 60.519531 66.316406 60.503906 66.332031 60.503906 66.332031 Z M 72.042969 48.753906 C 71.066406 42.632812 70.058594 36.464844 68.625 30.433594 C 68.105469 28.234375 67.515625 26.0625 66.847656 23.910156 C 66.273438 21.992188 65.636719 20.058594 64.6875 18.292969 C 63.726562 16.496094 62.367188 14.964844 60.871094 13.582031 C 56.285156 9.40625 50.222656 7.578125 44.113281 7.429688 C 43.964844 7.429688 43.859375 7.355469 43.800781 7.253906 C 41.773438 5.796875 39.246094 5.113281 36.804688 4.785156 C 33.699219 4.355469 30.472656 4.457031 27.394531 5.039062 C 24.4375 5.585938 21.464844 6.539062 18.964844 8.261719 C 17.085938 9.570312 15.5625 11.398438 14.214844 13.226562 C 11.125 17.429688 8.714844 22.15625 6.804688 27.015625 C 4.703125 32.378906 3.121094 38.011719 2.441406 43.746094 C 1.820312 48.976562 1.847656 54.457031 3.507812 59.511719 C 4.894531 63.746094 7.5 67.222656 11.140625 69.644531 C 9.867188 68.335938 9.113281 66.390625 8.757812 64.652344 C 8.34375 62.660156 8.359375 60.59375 8.253906 58.589844 C 8.253906 58.441406 8.460938 58.441406 8.476562 58.589844 C 8.640625 60.582031 8.742188 62.585938 9.203125 64.53125 C 9.421875 65.484375 9.71875 66.433594 10.175781 67.296875 C 10.398438 67.710938 10.652344 68.113281 10.902344 68.5 C 10.238281 66.628906 10.058594 64.59375 10.015625 62.601562 C 9.984375 62.453125 9.96875 62.289062 9.941406 62.140625 C 9.925781 62.082031 9.957031 62.023438 10 61.992188 C 10 61.933594 10 61.875 10 61.8125 C 10 61.546875 10.371094 61.5625 10.398438 61.8125 C 10.445312 62.125 10.472656 62.453125 10.519531 62.78125 C 11.242188 64.710938 11.804688 66.804688 13.003906 68.46875 C 13.566406 69.242188 14.289062 69.824219 15.222656 70.03125 C 15.636719 70.121094 16.125 70.121094 16.566406 70.164062 C 16.167969 69.4375 16.007812 68.542969 15.933594 67.726562 C 15.871094 67.015625 15.710938 65.855469 16.066406 65.128906 C 15.992188 64.578125 15.992188 64.011719 16.050781 63.433594 C 16.078125 63.210938 16.40625 63.195312 16.40625 63.433594 C 16.40625 63.894531 16.449219 64.371094 16.539062 64.84375 C 16.539062 64.84375 16.539062 64.84375 16.539062 64.859375 C 16.597656 65.007812 16.628906 65.140625 16.628906 65.277344 C 16.96875 66.671875 17.707031 68.011719 18.785156 68.929688 C 19.660156 69.675781 20.621094 70.03125 21.761719 70.058594 C 22.292969 70.074219 22.8125 70.058594 23.34375 70.015625 C 23.578125 70 23.832031 69.957031 24.066406 69.957031 C 23.667969 69.539062 23.386719 68.992188 23.179688 68.46875 C 22.988281 67.980469 22.675781 67.3125 22.675781 66.730469 C 22.101562 65.722656 21.6875 64.457031 22.054688 63.402344 C 22.117188 63.253906 22.351562 63.226562 22.394531 63.402344 C 22.542969 64.085938 22.515625 64.800781 22.765625 65.46875 C 23.03125 66.195312 23.445312 66.867188 23.933594 67.460938 C 24.320312 67.921875 24.734375 68.351562 25.175781 68.753906 C 24.824219 68.160156 24.527344 67.503906 24.347656 66.867188 C 24.082031 65.898438 23.816406 63.921875 24.96875 63.417969 C 25.058594 63.375 25.191406 63.417969 25.191406 63.539062 C 25.175781 63.996094 24.957031 64.414062 24.851562 64.84375 C 25.3125 65.8125 25.933594 66.746094 26.640625 67.535156 C 27.027344 67.949219 27.441406 68.351562 27.855469 68.738281 C 28.0625 68.917969 28.269531 69.078125 28.433594 69.273438 C 29.1875 69.316406 29.882812 69.363281 30.636719 69.257812 C 31.257812 69.167969 31.863281 69.050781 32.484375 68.945312 C 31.449219 68.128906 31.332031 66.730469 31.554688 65.511719 C 31.714844 64.605469 32.027344 63.359375 32.632812 62.511719 C 26.613281 63.253906 20.265625 63.34375 14.480469 61.265625 C 11.863281 60.328125 8.535156 58.738281 7.515625 55.914062 C 6.449219 52.957031 7.410156 49.375 9.261719 46.953125 C 9.289062 46.925781 9.304688 46.910156 9.335938 46.878906 C 9.140625 46.078125 9.066406 45.230469 8.964844 44.429688 C 8.859375 43.613281 8.757812 42.792969 8.742188 41.960938 C 8.714844 40.65625 8.773438 39.152344 9.214844 37.875 C 8.921875 37.933594 8.609375 37.980469 8.3125 37.949219 C 8.121094 37.933594 8.03125 37.726562 8.152344 37.59375 C 7.574219 34.933594 7.929688 31.949219 8.578125 29.347656 C 8.816406 28.367188 9.128906 27.402344 9.511719 26.480469 C 8.445312 28.160156 7.738281 30.015625 7.261719 31.992188 C 6.996094 33.121094 6.730469 34.265625 6.640625 35.425781 C 6.554688 36.449219 6.6875 37.328125 6.878906 38.320312 C 6.894531 38.425781 6.773438 38.515625 6.703125 38.425781 C 6.007812 37.726562 6.152344 36.316406 6.242188 35.425781 C 6.359375 34.234375 6.597656 33.046875 6.894531 31.886719 C 7.53125 29.316406 8.550781 26.910156 10.296875 24.917969 C 10.828125 23.996094 11.464844 23.136719 12.261719 22.378906 C 12.457031 22.183594 12.738281 22.480469 12.558594 22.675781 C 9.066406 26.597656 8.417969 32.230469 8.816406 37.265625 C 9.066406 37.179688 9.335938 37.117188 9.617188 37.058594 C 9.617188 37.058594 9.617188 37.058594 9.617188 37.042969 C 9.703125 36.878906 9.867188 36.878906 9.984375 36.96875 C 10.089844 36.941406 10.191406 36.925781 10.296875 36.894531 C 11.050781 36.703125 11.820312 36.507812 12.574219 36.34375 C 13.773438 36.078125 15.238281 35.664062 16.492188 35.78125 C 16.332031 34.710938 16.285156 33.613281 16.421875 32.527344 C 16.554688 31.414062 16.746094 30.148438 17.335938 29.183594 C 17.410156 29.066406 17.632812 29.09375 17.632812 29.257812 C 17.574219 30.445312 17.175781 31.605469 17.070312 32.792969 C 16.980469 33.910156 17.027344 34.992188 17.234375 36.09375 C 17.484375 35.972656 17.765625 35.945312 18.046875 35.914062 C 18.269531 35.886719 18.566406 35.796875 18.832031 35.8125 C 18.667969 32.808594 19.023438 29.734375 20.578125 27.117188 C 20.636719 26.71875 20.726562 26.332031 20.84375 25.945312 C 20.886719 25.796875 21.109375 25.824219 21.109375 25.972656 C 21.140625 27.652344 21.109375 29.332031 21.480469 30.980469 C 21.746094 32.140625 22.144531 33.238281 22.648438 34.296875 C 22.542969 33.507812 22.542969 32.675781 22.558594 31.949219 C 22.605469 30.550781 22.78125 29.140625 23.136719 27.785156 C 23.773438 25.4375 24.957031 22.632812 27.101562 21.292969 C 27.25 21.191406 27.394531 21.414062 27.277344 21.53125 C 27.175781 21.664062 27.054688 21.785156 26.953125 21.917969 C 26.910156 22.824219 26.714844 23.714844 26.6875 24.636719 C 26.65625 25.648438 26.730469 26.671875 26.980469 27.667969 C 27.394531 29.316406 28.121094 30.996094 29.347656 32.214844 C 31.140625 34.011719 33.625 34.636719 36.09375 34.472656 C 36.226562 34.445312 36.359375 34.398438 36.492188 34.371094 C 36.566406 34.355469 36.640625 34.371094 36.6875 34.429688 C 36.773438 34.414062 36.863281 34.414062 36.953125 34.398438 C 35.945312 32.867188 35.636719 30.773438 35.992188 29.003906 C 36.035156 28.78125 36.347656 28.8125 36.40625 29.003906 C 36.40625 29.019531 36.421875 29.035156 36.421875 29.050781 C 36.433594 29.066406 36.449219 29.066406 36.464844 29.078125 C 37.515625 30.238281 37.945312 31.828125 39.347656 32.660156 C 40.472656 33.328125 41.746094 33.640625 43.003906 33.9375 C 42.75 33.226562 42.558594 32.480469 42.410156 31.710938 C 42.394531 31.605469 42.542969 31.574219 42.558594 31.664062 C 42.75 32.46875 42.988281 33.238281 43.285156 33.996094 C 43.492188 34.042969 43.683594 34.085938 43.890625 34.148438 C 43.832031 34.027344 43.757812 33.910156 43.699219 33.789062 C 42.632812 31.710938 41.96875 29.660156 41.65625 27.339844 C 41.433594 25.660156 41.347656 23.996094 41.464844 22.320312 C 41.480469 22.125 41.773438 22.066406 41.804688 22.273438 C 42.128906 23.953125 42.101562 25.691406 42.335938 27.386719 C 42.675781 29.777344 43.433594 31.960938 44.675781 34.042969 C 45.324219 35.15625 46.078125 36.226562 47.027344 37.117188 C 47.78125 37.832031 48.625 38.425781 49.46875 39.019531 C 50.117188 39.496094 50.8125 39.984375 51.421875 40.566406 C 51.285156 40.269531 51.152344 39.984375 51.007812 39.703125 C 50.105469 37.816406 49.15625 35.972656 48.417969 34.011719 C 48.359375 33.847656 48.609375 33.761719 48.683594 33.894531 C 49.882812 35.886719 50.917969 37.933594 51.921875 40.015625 C 52.945312 42.140625 53.890625 44.324219 54.527344 46.582031 C 55.042969 48.457031 55.398438 50.433594 55.355469 52.394531 C 55.578125 51.175781 55.726562 49.941406 55.796875 48.707031 C 55.976562 45.75 55.8125 42.792969 55.546875 39.851562 C 55.058594 34.621094 54.527344 28.902344 51.449219 24.472656 C 51.390625 24.382812 51.539062 24.296875 51.597656 24.382812 C 54.835938 28.722656 55.503906 34.605469 55.992188 39.835938 C 56.285156 42.929688 56.480469 46.0625 56.242188 49.183594 C 56.125 50.683594 55.917969 52.171875 55.589844 53.625 C 55.488281 54.074219 55.398438 54.546875 55.28125 55.023438 C 55.679688 54.175781 56.019531 53.316406 56.273438 52.421875 C 57.027344 49.777344 57.351562 47.027344 57.335938 44.28125 C 57.292969 38.753906 56.007812 33.449219 54.660156 28.113281 C 54.617188 27.933594 54.851562 27.890625 54.910156 28.039062 C 56.140625 31.144531 57.070312 34.472656 57.605469 37.859375 C 58.757812 35.707031 61.730469 34.117188 64.097656 34.785156 C 66.835938 35.558594 68.046875 38.664062 67.882812 41.292969 C 67.796875 42.765625 67.441406 44.207031 66.835938 45.542969 C 66.285156 46.746094 65.53125 48.113281 64.496094 48.960938 C 62.957031 50.207031 59.273438 51.679688 57.691406 49.824219 C 57.5 50.9375 57.25 52.023438 56.894531 53.089844 C 56.078125 55.574219 54.617188 57.742188 53.253906 59.957031 C 53.226562 60 53.195312 60.03125 53.164062 60.046875 C 53.152344 60.058594 53.136719 60.089844 53.121094 60.105469 C 52.945312 60.34375 52.515625 60.222656 52.605469 59.882812 C 52.605469 59.867188 52.617188 59.851562 52.617188 59.835938 C 52.605469 59.761719 52.605469 59.675781 52.664062 59.585938 C 52.691406 59.539062 52.707031 59.511719 52.738281 59.464844 C 53.0625 58.5 53.578125 57.578125 53.890625 56.597656 C 53.402344 56.910156 52.882812 57.191406 52.367188 57.445312 C 52.632812 58.351562 52.515625 59.4375 52.351562 60.328125 C 52.175781 61.339844 51.847656 62.332031 51.421875 63.269531 C 51.167969 63.804688 50.902344 64.355469 50.589844 64.90625 C 50.652344 64.933594 50.710938 64.992188 50.738281 65.082031 C 51.019531 65.855469 50.859375 66.761719 50.503906 67.519531 C 51.554688 67.402344 52.605469 67.132812 53.652344 67.207031 C 53.933594 66.851562 54.496094 66.671875 54.824219 66.300781 C 55.238281 65.824219 55.5625 65.277344 55.8125 64.710938 C 56.273438 63.671875 56.449219 62.585938 56.671875 61.472656 C 56.640625 61.351562 56.613281 61.234375 56.582031 61.117188 C 56.375 60.433594 55.992188 59.792969 55.871094 59.09375 C 55.84375 58.917969 56.035156 58.796875 56.167969 58.917969 C 57.203125 59.792969 57.515625 61.679688 57.515625 62.972656 C 57.515625 64.265625 57.261719 65.527344 56.921875 66.761719 C 57.988281 66.183594 58.652344 65.246094 59.410156 64.296875 C 59.644531 63.699219 60 63.152344 60.222656 62.542969 C 60.457031 61.875 60.664062 61.191406 60.796875 60.476562 C 60.945312 59.734375 61.066406 58.992188 61.125 58.234375 C 61.167969 57.683594 61.078125 57.058594 61.359375 56.570312 C 61.390625 56.507812 61.464844 56.480469 61.523438 56.480469 C 61.566406 56.226562 61.980469 56.152344 62.042969 56.449219 C 62.351562 58.171875 62.46875 60.058594 62.308594 61.8125 C 62.234375 62.617188 62.070312 63.449219 61.789062 64.222656 C 61.953125 63.878906 62.101562 63.539062 62.21875 63.179688 C 62.53125 62.214844 62.765625 61.234375 62.871094 60.222656 C 63.078125 58.113281 62.988281 56.0625 62.882812 53.9375 C 62.871094 53.804688 63.089844 53.804688 63.089844 53.9375 C 63.253906 56.121094 63.609375 58.441406 63.328125 60.625 C 63.210938 61.621094 63.003906 62.585938 62.664062 63.523438 C 62.394531 64.25 62.117188 65.054688 61.703125 65.738281 C 64.347656 64.503906 66.910156 62.929688 67.691406 59.867188 C 68.03125 58.558594 68.046875 57.207031 67.972656 55.871094 C 67.898438 54.546875 67.53125 53.046875 67.796875 51.753906 C 67.839844 51.53125 68.136719 51.574219 68.210938 51.753906 C 68.460938 52.46875 68.476562 53.253906 68.550781 53.996094 C 68.640625 54.753906 68.726562 55.527344 68.773438 56.285156 C 68.816406 56.941406 68.832031 57.609375 68.785156 58.277344 C 70.117188 55.007812 69.601562 51.144531 68.992188 47.726562 C 68.964844 47.578125 69.171875 47.519531 69.214844 47.667969 C 69.777344 49.867188 70.074219 52.171875 69.96875 54.445312 C 69.894531 56.210938 69.660156 58.277344 68.59375 59.777344 C 68.578125 59.851562 68.566406 59.910156 68.550781 59.984375 C 70.148438 58.664062 71.523438 57.074219 72.054688 55.007812 C 72.574219 52.988281 72.367188 50.832031 72.042969 48.753906 Z M 58.164062 44.816406 C 58.152344 46.226562 58.046875 47.652344 57.855469 49.050781 C 57.988281 49.003906 58.136719 49.019531 58.238281 49.152344 C 59.039062 50.089844 60.503906 49.835938 61.554688 49.511719 C 62.648438 49.183594 63.714844 48.707031 64.46875 47.816406 C 66.09375 45.929688 67.144531 43.269531 67.117188 40.757812 C 67.085938 38.46875 65.785156 35.4375 63.089844 35.453125 C 61.835938 35.453125 60.578125 35.945312 59.585938 36.703125 C 58.667969 37.414062 58.152344 38.261719 57.871094 39.332031 C 58.078125 41.175781 58.179688 43.003906 58.164062 44.816406 Z M 55.296875 15.511719 C 55.238281 15.394531 55.015625 15.484375 55.074219 15.601562 C 56.226562 18.351562 57.707031 20.9375 58.90625 23.671875 C 59.542969 25.128906 60.089844 26.613281 60.503906 28.128906 C 60.933594 29.6875 61.109375 31.277344 61.316406 32.882812 C 61.347656 33.078125 61.628906 33.089844 61.628906 32.882812 C 61.714844 29.851562 60.621094 26.730469 59.46875 23.96875 C 58.285156 21.070312 56.820312 18.261719 55.296875 15.511719 Z M 61.332031 26.136719 C 61.910156 27.355469 62.101562 28.664062 62.542969 29.925781 C 62.589844 30.03125 62.75 30.03125 62.75 29.898438 C 62.722656 28.542969 62.1875 27.175781 61.566406 26.003906 C 61.480469 25.824219 61.257812 25.972656 61.332031 26.136719 Z M 35.265625 18.023438 C 34.824219 19.585938 34.410156 21.144531 34.128906 22.75 C 34.007812 23.449219 33.933594 24.160156 33.875 24.875 C 33.816406 25.664062 33.726562 26.613281 33.980469 27.371094 C 34.007812 27.460938 34.15625 27.476562 34.171875 27.371094 C 34.304688 26.730469 34.214844 26.0625 34.230469 25.410156 C 34.261719 24.546875 34.347656 23.699219 34.46875 22.855469 C 34.6875 21.25 35.105469 19.675781 35.488281 18.097656 C 35.546875 17.933594 35.3125 17.875 35.265625 18.023438 Z M 33.800781 20.890625 C 33.433594 21.933594 33.164062 23.0625 33.195312 24.175781 C 33.195312 24.339844 33.460938 24.382812 33.492188 24.222656 C 33.652344 23.121094 33.757812 22.035156 34.097656 20.980469 C 34.140625 20.789062 33.859375 20.714844 33.800781 20.890625 Z M 23.640625 15.914062 C 21.761719 17.785156 19.140625 20.148438 18.832031 22.957031 C 18.800781 23.164062 19.097656 23.164062 19.15625 23.003906 C 19.675781 21.648438 20.164062 20.402344 20.992188 19.214844 C 21.789062 18.070312 22.78125 17.058594 23.757812 16.046875 C 23.859375 15.972656 23.726562 15.839844 23.640625 15.914062 Z M 20.28125 18.382812 C 19.660156 19.109375 19.128906 19.898438 18.683594 20.730469 C 18.652344 20.773438 18.726562 20.816406 18.757812 20.773438 C 19.246094 19.972656 19.777344 19.183594 20.382812 18.46875 C 20.429688 18.410156 20.339844 18.320312 20.28125 18.382812 Z M 36.007812 39.214844 C 36.390625 39.390625 36.746094 39.601562 37.101562 39.835938 C 37.441406 40.058594 37.589844 40.253906 38.019531 40.132812 C 38.195312 40.089844 38.269531 39.941406 38.285156 39.777344 C 38.359375 39.019531 37.277344 38.648438 36.714844 38.394531 C 36.066406 38.113281 35.355469 37.859375 34.628906 37.875 C 34.394531 37.875 34.230469 38.203125 34.421875 38.367188 C 34.882812 38.769531 35.457031 38.945312 36.007812 39.214844 Z M 30.519531 45.617188 C 30.886719 42.78125 33.445312 41.488281 36.125 41.769531 C 38.683594 42.023438 39.957031 44.222656 40.222656 46.582031 C 40.445312 49.511719 37.75 51.769531 34.925781 51.351562 C 32.21875 50.9375 30.164062 48.394531 30.519531 45.617188 Z M 34.703125 50.65625 C 37.261719 51.144531 39.777344 49.300781 39.585938 46.582031 C 39.363281 44.636719 38.359375 42.734375 36.257812 42.4375 C 34.039062 42.125 31.421875 43.105469 31.183594 45.632812 C 30.945312 47.90625 32.367188 50.210938 34.703125 50.65625 Z M 20.933594 52.394531 C 18.238281 51.992188 16.125 49.480469 16.480469 46.703125 C 16.835938 43.820312 19.46875 42.558594 22.144531 42.824219 C 24.71875 43.078125 26.019531 45.261719 26.285156 47.636719 C 26.523438 50.59375 23.773438 52.824219 20.933594 52.394531 Z M 25.652344 47.636719 C 25.414062 45.542969 24.230469 43.597656 21.9375 43.449219 C 19.777344 43.316406 17.335938 44.25 17.117188 46.703125 C 16.910156 49.078125 18.476562 51.382812 20.902344 51.738281 C 23.417969 52.125 25.859375 50.296875 25.652344 47.636719 Z M 34.96875 46.941406 C 35.457031 46.925781 35.796875 46.507812 35.753906 46.078125 C 35.710938 45.648438 35.488281 45.171875 34.808594 45.214844 C 34.15625 45.261719 33.949219 45.707031 34.007812 46.136719 C 34.097656 46.628906 34.496094 46.953125 34.96875 46.941406 Z M 21.40625 46.582031 C 20.753906 46.628906 20.546875 47.074219 20.605469 47.503906 C 20.679688 47.980469 21.078125 48.320312 21.566406 48.292969 C 22.054688 48.277344 22.394531 47.859375 22.351562 47.429688 C 22.308594 47.015625 22.085938 46.539062 21.40625 46.582031 Z M 35.058594 58.039062 C 33.640625 58.753906 32.054688 59.066406 30.472656 59.078125 C 28.152344 59.109375 25.621094 58.695312 23.492188 57.757812 C 23.476562 57.757812 23.476562 57.742188 23.476562 57.742188 C 23.253906 57.710938 23.03125 57.667969 22.824219 57.609375 C 22.75 57.726562 22.664062 57.847656 22.574219 57.949219 C 22.5 58.023438 22.394531 58.054688 22.308594 58.023438 C 22.261719 58.011719 22.21875 57.996094 22.1875 57.949219 C 22.101562 57.847656 22.085938 57.742188 22.144531 57.609375 C 22.277344 57.296875 22.574219 57.042969 22.796875 56.792969 C 22.972656 56.597656 23.285156 56.851562 23.152344 57.074219 C 23.121094 57.132812 23.078125 57.191406 23.046875 57.265625 C 23.640625 57.328125 24.230469 57.445312 24.824219 57.414062 C 25.5625 57.386719 26.300781 57.265625 27.042969 57.179688 C 28.59375 56.984375 30.148438 56.644531 31.628906 56.167969 C 32.957031 55.738281 34.273438 55.230469 35.519531 54.5625 C 36.273438 54.160156 37.042969 53.699219 37.617188 53.0625 C 37.632812 53.046875 37.632812 53.03125 37.648438 53.03125 C 37.664062 53.015625 37.664062 53.015625 37.675781 53.003906 C 37.648438 52.929688 37.632812 52.855469 37.632812 52.765625 C 37.632812 52.542969 37.945312 52.378906 38.105469 52.570312 C 38.238281 52.734375 38.3125 52.929688 38.445312 53.078125 C 38.59375 53.238281 38.773438 53.375 38.890625 53.539062 C 38.964844 53.625 38.933594 53.746094 38.890625 53.847656 C 38.875 53.894531 38.816406 53.921875 38.785156 53.953125 C 38.699219 54.011719 38.566406 53.996094 38.476562 53.953125 C 38.417969 53.921875 38.359375 53.878906 38.296875 53.835938 C 37.972656 55.691406 36.714844 57.207031 35.058594 58.039062 Z M 34.71875 57.445312 C 36.019531 56.761719 37.46875 55.46875 37.8125 53.9375 C 37.21875 54.503906 36.464844 54.933594 35.753906 55.304688 C 34.496094 55.960938 33.179688 56.480469 31.835938 56.894531 C 30.28125 57.371094 28.667969 57.742188 27.042969 57.890625 C 26.714844 57.921875 26.40625 57.921875 26.09375 57.921875 C 28.992188 58.46875 32.011719 58.871094 34.71875 57.445312 Z M 67.957031 6.851562 C 68.34375 7.207031 68.785156 7.460938 69.097656 7.890625 C 69.511719 8.46875 68.652344 8.765625 68.195312 8.722656 C 67.558594 8.679688 66.980469 8.292969 66.332031 8.234375 C 65.710938 8.171875 64.957031 8.5 64.644531 9.066406 C 64.304688 9.675781 64.808594 10.328125 65.445312 10.386719 C 65.738281 10.417969 66.019531 10.328125 66.316406 10.28125 C 66.6875 10.238281 67.070312 10.402344 67.394531 10.550781 C 67.824219 10.742188 68.238281 10.953125 68.714844 10.996094 C 69.273438 11.054688 69.808594 10.832031 70.265625 10.519531 C 71.242188 9.851562 71.523438 8.367188 71.183594 7.296875 C 70.859375 6.257812 69.6875 5.542969 68.640625 5.46875 C 68.566406 5.46875 68.507812 5.46875 68.433594 5.46875 C 68.226562 5.46875 68.019531 5.5 67.839844 5.585938 C 67.234375 5.898438 67.617188 6.554688 67.957031 6.851562 Z M 63.699219 11.589844 C 63.992188 11.710938 64.335938 11.648438 64.542969 11.398438 C 64.71875 11.175781 64.761719 10.863281 64.71875 10.59375 C 64.675781 10.296875 64.511719 10.015625 64.261719 9.851562 C 63.992188 9.6875 63.433594 9.644531 63.359375 10.046875 C 63.359375 10.058594 63.359375 10.058594 63.359375 10.074219 C 63.328125 10.105469 63.296875 10.132812 63.269531 10.179688 C 62.855469 10.667969 63.121094 11.367188 63.699219 11.589844 Z M 62.027344 6.316406 C 62.292969 6.183594 62.5 5.972656 62.722656 5.796875 C 63.019531 5.574219 63.433594 5.527344 63.785156 5.484375 C 64.261719 5.425781 64.71875 5.394531 65.164062 5.203125 C 65.679688 4.980469 66.019531 4.503906 66.257812 4.011719 C 66.761719 2.941406 66.257812 1.515625 65.429688 0.757812 C 64.628906 0.03125 63.253906 0 62.324219 0.476562 C 62.261719 0.507812 62.203125 0.550781 62.144531 0.582031 C 61.96875 0.683594 61.804688 0.816406 61.6875 0.980469 C 61.300781 1.53125 61.980469 1.886719 62.425781 1.992188 C 62.929688 2.097656 63.445312 2.097656 63.933594 2.320312 C 64.585938 2.601562 63.980469 3.300781 63.578125 3.492188 C 63.003906 3.773438 62.308594 3.730469 61.730469 4.011719 C 61.167969 4.28125 60.679688 4.949219 60.695312 5.585938 C 60.695312 6.285156 61.449219 6.582031 62.027344 6.316406 Z M 61.109375 8.21875 C 61.433594 8.171875 61.6875 7.933594 61.746094 7.625 C 61.789062 7.339844 61.671875 7.058594 61.492188 6.835938 C 61.316406 6.597656 61.019531 6.433594 60.726562 6.417969 C 60.414062 6.40625 59.894531 6.65625 60.042969 7.042969 C 60.042969 7.058594 60.058594 7.058594 60.058594 7.058594 C 60.042969 7.101562 60.042969 7.148438 60.03125 7.191406 C 59.925781 7.847656 60.488281 8.320312 61.109375 8.21875 Z M 7.929688 5.351562 C 8.3125 5.007812 8.625 4.59375 9.082031 4.339844 C 9.703125 3.996094 9.894531 4.890625 9.808594 5.335938 C 9.6875 5.972656 9.246094 6.496094 9.113281 7.132812 C 8.992188 7.742188 9.230469 8.542969 9.75 8.902344 C 10.324219 9.300781 11.019531 8.886719 11.140625 8.246094 C 11.199219 7.964844 11.140625 7.652344 11.140625 7.371094 C 11.140625 7 11.347656 6.644531 11.523438 6.332031 C 11.761719 5.914062 12.011719 5.527344 12.117188 5.054688 C 12.234375 4.503906 12.070312 3.9375 11.820312 3.449219 C 11.273438 2.394531 9.835938 1.949219 8.726562 2.171875 C 7.664062 2.378906 6.820312 3.464844 6.640625 4.503906 C 6.628906 4.578125 6.628906 4.636719 6.613281 4.710938 C 6.582031 4.917969 6.597656 5.128906 6.65625 5.320312 C 6.894531 5.972656 7.589844 5.660156 7.929688 5.351562 Z M 11.257812 9.003906 C 10.960938 9.003906 10.664062 9.140625 10.472656 9.375 C 10.28125 9.613281 10.175781 10.179688 10.5625 10.296875 C 10.578125 10.296875 10.578125 10.296875 10.589844 10.296875 C 10.621094 10.328125 10.652344 10.371094 10.679688 10.402344 C 11.140625 10.890625 11.847656 10.699219 12.144531 10.148438 C 12.292969 9.867188 12.277344 9.523438 12.042969 9.289062 C 11.835938 9.066406 11.523438 8.992188 11.257812 9.003906 Z M 1.214844 12.542969 C 1.332031 12.71875 1.480469 12.855469 1.65625 12.957031 C 2.234375 13.285156 2.53125 12.585938 2.589844 12.125 C 2.648438 11.605469 2.605469 11.101562 2.78125 10.59375 C 3.003906 9.925781 3.742188 10.460938 3.980469 10.847656 C 4.320312 11.398438 4.335938 12.097656 4.675781 12.644531 C 4.984375 13.179688 5.695312 13.613281 6.332031 13.539062 C 7.027344 13.464844 7.261719 12.660156 6.9375 12.125 C 6.789062 11.875 6.554688 11.679688 6.347656 11.472656 C 6.09375 11.203125 6.007812 10.789062 5.933594 10.445312 C 5.84375 9.984375 5.769531 9.523438 5.53125 9.109375 C 5.25 8.617188 4.761719 8.308594 4.246094 8.113281 C 3.136719 7.699219 1.773438 8.335938 1.09375 9.242188 C 0.445312 10.121094 0.53125 11.488281 1.09375 12.378906 C 1.125 12.421875 1.167969 12.480469 1.214844 12.542969 Z M 8.238281 12.273438 C 7.957031 12.257812 7.675781 12.40625 7.484375 12.601562 C 7.261719 12.808594 7.128906 13.105469 7.144531 13.402344 C 7.160156 13.714844 7.457031 14.207031 7.824219 14.027344 C 7.839844 14.027344 7.839844 14.011719 7.839844 14.011719 C 7.882812 14.027344 7.929688 14.027344 7.972656 14.027344 C 8.640625 14.070312 9.039062 13.464844 8.890625 12.855469 C 8.816406 12.542969 8.566406 12.304688 8.238281 12.273438 Z M 8.238281 12.273438 " fill-opacity="1" fill-rule="nonzero"/></g></svg>